<?xml version="1.0" standalone="no"?>
<!DOCTYPE svg PUBLIC "-//W3C//DTD SVG 1.1//EN" "http://www.w3.org/Graphics/SVG/1.1/DTD/svg11.dtd" >
<svg xmlns="http://www.w3.org/2000/svg">
<metadata>
This is a custom SVG webfont generated by Font Squirrel.
Designer    : Thatcher Ulrich
Foundry URL : http://tulrich.com_
</metadata>
<defs>
<font id="webfontnRZzVXAD" horiz-adv-x="1177" >
<font-face units-per-em="2048" ascent="1597" descent="-451" />
<missing-glyph horiz-adv-x="616" />
<glyph unicode=" "  horiz-adv-x="616" />
<glyph unicode="&#x09;" horiz-adv-x="616" />
<glyph unicode="&#xa0;" horiz-adv-x="616" />
<glyph unicode="!" horiz-adv-x="457" d="M97 131q14 68 72.5 116t126.5 48q59 0 96 -36.5t37 -93.5q0 -17 -4 -34q-14 -68 -72.5 -116t-126.5 -48q-58 0 -95.5 37t-37.5 93q0 17 4 34zM426 440q-5 -23 -45 -41t-67 -18q-26 0 -57 16t-31 37q0 3 1 6l160 949q8 37 62 65.5t97 28.5q40 0 81.5 -25.5t41.5 -57.5 q0 -5 -1 -9z" />
<glyph unicode="&#x22;" horiz-adv-x="874" d="M382 1092l59 374q7 34 51 55t78 21h4q10 0 25 -3t33 -9t30 -18.5t12 -29.5l-2 -16l-100 -374q-5 -21 -43 -34.5t-63 -13.5q-24 0 -54.5 10.5t-30.5 27.5q0 7 1 10zM756 1092l60 374q7 34 51 55t78 21h4q10 0 25.5 -3t33 -9t29.5 -18.5t12 -29.5l-2 -16l-100 -374 q-5 -21 -43.5 -34.5t-63.5 -13.5q-24 0 -54.5 10.5t-30.5 28.5q1 1 1 4v5z" />
<glyph unicode="#" horiz-adv-x="1565" d="M1003 596l51 240h-185l-51 -240h185zM1206 356l-66 -309h-254l66 309h-185l-66 -309h-254l66 309h-318l51 240h318l51 240h-318l50 237h318l70 330h254l-70 -330h185l70 330h254l-70 -330h311l-50 -237h-311l-51 -240h311l-51 -240h-311z" />
<glyph unicode="$" horiz-adv-x="927" d="M759 1537h170l-29 -133q123 -10 200.5 -71t116.5 -178l-282 -82q-21 45 -35 60.5t-52 25.5l-71 -336q40 -14 70 -26.5t66.5 -31t62.5 -37.5t52.5 -45.5t43 -55.5t27 -66.5t10.5 -80.5q0 -45 -11 -95q-35 -165 -169.5 -278.5t-332.5 -132.5l-27 -129h-168l27 129 q-78 6 -140.5 42.5t-101.5 91t-62 114t-31 122.5l264 82q9 -36 13.5 -51t16.5 -48t23 -49.5t30 -32.5t42 -20l88 414q-315 73 -315 317q0 45 11 95q21 98 94 178.5t170.5 125t200.5 50.5zM622 885l60 282q-61 -7 -97 -47t-44 -76q-6 -27 -6 -49q0 -41 21 -66t66 -44z M725 578l-77 -361q77 16 119.5 61.5t55.5 108.5q5 22 5 42q0 102 -103 149z" />
<glyph unicode="%" horiz-adv-x="1435" d="M1019 371q-3 -15 -3 -29q0 -34 19 -53t50 -19q38 0 68 26.5t40 74.5q3 14 3 27q0 35 -18.5 58t-49.5 23q-35 0 -67.5 -32t-41.5 -76zM804 370q28 131 135.5 222.5t233.5 91.5q108 0 176 -69.5t68 -176.5q0 -33 -7 -67q-27 -128 -135 -218t-234 -90q-109 0 -176.5 67.5 t-67.5 172.5q0 33 7 67zM537 1075q-3 -14 -3 -27q0 -34 19 -53.5t51 -19.5q38 0 67.5 26t39.5 74q3 14 3 29q0 34 -18 57t-49 23q-34 0 -67 -32.5t-43 -76.5zM323 1076q27 130 135 221.5t234 91.5q109 0 177 -70t68 -176q0 -34 -7 -68q-27 -128 -135 -217.5t-235 -89.5 q-108 0 -176 68t-68 173q0 33 7 67zM510 119h-210l930 1218h201z" />
<glyph unicode="&#x26;" horiz-adv-x="1284" d="M959 1167q-12 42 -49.5 76.5t-96.5 34.5q-67 0 -125.5 -41.5t-74.5 -118.5q-5 -23 -5 -43q0 -62 41 -95.5t109 -33.5h170l-51 -239h-166q-106 0 -190.5 -80t-109.5 -199q-6 -28 -6 -55q0 -81 50 -133t136 -52q111 0 176.5 49.5t80.5 120.5h-174l46 217h586l-45 -215h-158 q-11 -51 -39.5 -105.5t-78 -110t-112.5 -99t-150 -71t-183 -27.5q-116 0 -208.5 44.5t-146 126t-53.5 185.5q0 43 10 88q70 329 332 437q-22 10 -44.5 28t-44 45t-35 66.5t-13.5 83.5q0 33 7 67q38 180 187.5 291t334.5 111q139 0 221.5 -68t105.5 -178z" />
<glyph unicode="'" horiz-adv-x="464" d="M382 1092l59 374q7 34 51 55t78 21h4q10 0 25 -3t33 -9t30 -18.5t12 -29.5l-2 -16l-100 -374q-5 -21 -43 -34.5t-63 -13.5q-24 0 -54.5 10.5t-30.5 27.5q0 7 1 10z" />
<glyph unicode="(" horiz-adv-x="653" d="M271 -84q-124 215 -124 480q0 152 41 343q105 492 433 824h264q-175 -195 -285.5 -409.5t-155.5 -424.5q-28 -131 -28 -269q0 -292 119 -544h-264z" />
<glyph unicode=")" horiz-adv-x="643" d="M320 -96h-260q166 186 281 404.5t158 418.5q26 125 26 266q0 308 -116 556h261q122 -216 122 -501q0 -152 -35 -321q-50 -235 -152.5 -439t-284.5 -384z" />
<glyph unicode="*" horiz-adv-x="1172" d="M937 821l247 14q27 0 40.5 -27t13.5 -61q0 -14 -2 -25v-4q-7 -31 -30 -69t-50 -43q-7 -2 -21 -2l-243 13l91 -205q3 -14 1 -25q-6 -27 -34 -56t-53 -41l-4 -2q-44 -22 -87 -22q-30 0 -40 14q-4 4 -8 16l-65 220l-157 -219q-22 -27 -67 -27q-41 0 -71 18l-1 1q-1 1 -2 1 q-18 11 -35 36t-17 48q0 5 1 9q2 8 4 11q3 7 13 19l176 205l-246 -14q-28 0 -41 27t-13 62q0 13 2 24q1 1 1 4q7 31 30 69t50 43q6 2 20 2l245 -13l-91 206q-4 12 -1 25q5 27 33 56t54 42l4 2q42 22 87 22q29 0 39 -15q4 -4 8 -16l65 -219l157 218q21 28 68 28q42 0 70 -18 q0 -1 1 -1t2 -1q18 -12 35 -36.5t17 -46.5q0 -5 -1 -10q-2 -8 -4 -12q-4 -9 -12 -18z" />
<glyph unicode="+" horiz-adv-x="972" d="M230 760h266l64 302h240l-64 -302h287l-51 -240h-288l-61 -287h-239l61 287h-266z" />
<glyph unicode="," horiz-adv-x="444" d="M411 137q-12 -57 -45.5 -116t-74 -104t-74 -75.5t-58.5 -46.5l-64 43q15 19 40.5 59.5t30.5 62.5v11q-36 9 -61 40t-25 81q0 21 5 45q13 60 71.5 110.5t121.5 50.5q68 0 102 -38t34 -91q0 -16 -3 -32z" />
<glyph unicode="-" horiz-adv-x="960" d="M258 754h772l-51 -240h-772z" />
<glyph unicode="." horiz-adv-x="451" d="M92 131q14 68 72.5 116t126.5 48q59 0 96 -36.5t37 -93.5q0 -17 -4 -34q-14 -68 -72.5 -116t-126.5 -48q-58 0 -95.5 37t-37.5 93q0 17 4 34z" />
<glyph unicode="/" horiz-adv-x="847" d="M245 0h-287l983 1544h268z" />
<glyph unicode="0" d="M241 756q73 345 249.5 539.5t416.5 194.5q184 0 280 -117t96 -335q0 -127 -33 -282q-49 -230 -145 -406.5t-232.5 -277t-292.5 -100.5h-2q-181 0 -276 130.5t-95 358.5q0 136 34 295zM509 756q-45 -210 -45 -326q0 -109 39 -162.5t126 -53.5q136 0 214.5 131t138.5 411 q42 201 42 302q0 100 -39.5 145t-129.5 45q-139 0 -214 -111t-132 -381z" />
<glyph unicode="1" d="M754 1184l4 22h-273l39 30l290 220h265l-309 -1456h-268z" />
<glyph unicode="2" d="M587 1076l-223 71q60 145 214 245t306 100q55 0 105.5 -9t100 -32.5t86 -59.5t59 -93t22.5 -130q0 -59 -15 -127q-26 -121 -79 -204t-164 -174q-65 -53 -193.5 -135.5t-222 -153t-130.5 -134.5h659l-51 -240h-969q37 172 104 291t216 243q58 48 140 102l146 93 q63 40 125 87.5t102.5 103.5t54.5 121q7 34 7 63q0 73 -41 110.5t-113 37.5q-82 0 -141.5 -43t-104.5 -133z" />
<glyph unicode="3" d="M162 323l273 70q17 -93 75.5 -136t132.5 -43q102 0 180.5 61.5t98.5 153.5q4 21 4 41q0 77 -55 129t-135 52h-165l46 213h142q75 0 142 59t83 131q6 29 6 55q0 70 -43 107t-112 37q-59 0 -110.5 -33t-79.5 -78l-236 66q167 282 476 282q77 0 142.5 -17t117.5 -51 t81.5 -92t29.5 -135q0 -46 -11 -99q-37 -173 -204 -276q34 -27 59 -52t50 -61t38.5 -81.5t13.5 -98.5q0 -46 -11 -98q-40 -187 -212.5 -322t-386.5 -135q-113 0 -200.5 34.5t-149.5 115t-80 201.5z" />
<glyph unicode="4" d="M1068 585h138l-50 -237h-138l-74 -348h-269l74 348h-585l44 204l756 904h289zM918 1105l-445 -517h335z" />
<glyph unicode="5" d="M751 719q-110 0 -180 -59l-238 90l268 706h683l-50 -239h-469l-117 -291q43 22 152 22q187 0 302 -101.5t115 -272.5q0 -54 -13 -113q-31 -144 -122 -256t-219 -171.5t-271 -59.5q-90 0 -164 26.5t-120 68t-78 95t-45 104t-13 98.5l275 46q-1 -25 9.5 -56.5t31.5 -63.5 t62 -54t94 -22q110 0 192 70t104 175q7 31 7 61q0 86 -52 141.5t-144 55.5z" />
<glyph unicode="6" d="M889 429q6 28 6 55q0 77 -46 126.5t-125 49.5q-92 0 -164 -68.5t-91 -158.5q-6 -28 -6 -54q0 -76 46.5 -123.5t120.5 -47.5q94 0 167.5 67.5t91.5 153.5zM727 897q5 5 55 5q181 0 284.5 -98.5t103.5 -261.5q0 -54 -12 -113q-18 -84 -71 -166t-128.5 -146.5t-176 -104.5 t-204.5 -40q-89 0 -163 29.5t-122.5 79.5t-75 117t-26.5 141q0 46 10 92q17 81 55 163.5t68 128t83 116.5l63 85l387 532h286z" />
<glyph unicode="7" d="M1467 1456l-1045 -1456h-324l860 1202h-603l54 254h1058z" />
<glyph unicode="8" d="M631 193q113 0 197.5 67t107.5 173q5 25 5 49q0 86 -59.5 140t-147.5 54q-120 0 -201.5 -67.5t-104.5 -175.5q-6 -29 -6 -56q0 -84 56 -134t153 -50zM626 1095q-6 -26 -6 -48q0 -62 43.5 -93t122.5 -31q89 0 151.5 42.5t81.5 129.5q5 22 5 43q0 60 -41.5 96t-124.5 36 q-97 0 -156.5 -49t-75.5 -126zM904 1489q180 0 286.5 -86.5t106.5 -227.5q0 -39 -9 -80q-11 -50 -36 -95t-48 -72.5t-62.5 -57.5t-55.5 -39l-49 -29q69 -19 122.5 -100.5t53.5 -188.5q0 -40 -9 -80q-31 -148 -125.5 -254t-222 -156.5t-276.5 -50.5q-206 0 -319 95.5 t-113 257.5q0 52 12 108q14 65 52 130t85 113.5t96.5 82.5t89.5 43q-21 14 -40 31t-42 45.5t-36.5 68t-13.5 84.5q0 31 7 64q38 178 187 286t359 108z" />
<glyph unicode="9" d="M594 1027q-6 -28 -6 -54q0 -77 46 -127t125 -50q92 0 164 68.5t91 158.5q6 28 6 54q0 76 -46.5 123.5t-120.5 47.5q-94 0 -167.5 -67.5t-91.5 -153.5zM757 559q-7 -5 -55 -5q-181 0 -285 99t-104 261q0 55 12 113q18 84 71 166t128.5 146.5t176 104.5t204.5 40 q89 0 163 -29.5t122.5 -80t75.5 -117.5t27 -142q0 -45 -10 -90q-17 -81 -55.5 -163.5t-68.5 -128t-83 -116.5l-63 -85l-386 -532h-287z" />
<glyph unicode=":" horiz-adv-x="440" d="M247 859q14 68 72.5 116t126.5 48q59 0 96 -36.5t37 -93.5q0 -17 -4 -34q-14 -68 -72.5 -116t-126.5 -48q-58 0 -95.5 37t-37.5 93q0 17 4 34zM92 131q14 68 72.5 116t126.5 48q59 0 96 -36.5t37 -93.5q0 -17 -4 -34q-14 -68 -72.5 -116t-126.5 -48q-58 0 -95.5 37 t-37.5 93q0 17 4 34z" />
<glyph unicode=";" horiz-adv-x="440" d="M421 137q-12 -57 -45.5 -116t-74 -104t-74 -75.5t-58.5 -46.5l-64 43q15 19 40.5 59.5t30.5 62.5v11q-36 9 -61 40t-25 81q0 21 5 45q13 60 71.5 110.5t121.5 50.5q68 0 102 -38t34 -91q0 -16 -3 -32zM247 860q14 68 72.5 116t126.5 48q59 0 96 -36.5t37 -93.5 q0 -17 -4 -34q-14 -68 -72.5 -116t-126.5 -48q-58 0 -95.5 37t-37.5 93q0 17 4 34z" />
<glyph unicode="&#x3c;" horiz-adv-x="864" d="M468 24l-288 612l546 601h332l-547 -604l287 -609h-330z" />
<glyph unicode="=" horiz-adv-x="907" d="M172 549h801l-51 -240h-801zM249 915h801l-50 -239h-801z" />
<glyph unicode="&#x3e;" horiz-adv-x="864" d="M397 20h-338l552 612l-293 603h339l285 -599z" />
<glyph unicode="?" horiz-adv-x="1034" d="M371 131q14 68 72.5 116t126.5 48q59 0 96 -36.5t37 -93.5q0 -17 -4 -34q-14 -68 -72.5 -116t-126.5 -48q-58 0 -95.5 37t-37.5 93q0 17 4 34zM752 530l-28 -131h-268l41 195q14 67 60 121t103 93l113 76q57 39 102.5 92t59.5 118q4 19 4 36q0 43 -25.5 71.5t-62 40 t-81.5 11.5q-79 0 -141.5 -52.5t-86.5 -131.5l-259 41q55 169 199.5 278t335.5 109q83 0 156 -20.5t129.5 -58.5t89 -99t32.5 -137q0 -40 -9 -84q-16 -75 -48 -138t-71.5 -105t-83.5 -77t-86.5 -63t-78.5 -55t-62 -59.5t-34 -70.5z" />
<glyph unicode="@" horiz-adv-x="1737" d="M1279 260l81 -147q-120 -74 -234.5 -110t-257.5 -36t-264.5 45.5t-206 125.5t-132.5 192t-48 243q0 77 17 158q45 211 189 387t348 276.5t422 100.5q142 0 263 -44t204.5 -121t130.5 -185.5t47 -234.5q0 -73 -16 -150q-23 -106 -86.5 -196t-144.5 -140.5t-157 -50.5 q-56 0 -104 32t-71 95q-118 -154 -310 -154q-145 0 -237.5 88t-92.5 221q0 37 8 76q32 149 173.5 256t307.5 107q143 0 229.5 -81.5t86.5 -201.5q0 -32 -7 -65q-5 -22 -5 -44q0 -46 18 -78t47 -32q40 0 81.5 49t56.5 119q12 58 12 115q0 95 -34 177.5t-94.5 142t-149 94 t-193.5 34.5q-120 0 -240.5 -47t-217.5 -127t-168 -190t-96 -230q-13 -63 -13 -124q0 -100 35.5 -187t98.5 -150t153 -99t195 -36q98 0 202.5 38t173.5 89zM846 731q-4 -20 -4 -39q0 -63 42.5 -103t107.5 -40q77 0 135.5 57t75.5 139q4 17 4 34q0 56 -40.5 91t-99.5 35 q-75 0 -139.5 -47.5t-81.5 -126.5z" />
<glyph unicode="A" horiz-adv-x="1421" d="M922 1048l-249 -423h300zM996 379h-448l-217 -379h-311l872 1456h256l199 -1456h-307z" />
<glyph unicode="B" horiz-adv-x="1226" d="M523 639l-85 -399h227q80 0 141.5 17t99 47.5t58.5 65.5t30 77q5 24 5 46q0 146 -249 146h-227zM646 1219l-73 -342h168q137 0 207.5 50.5t85.5 121.5q4 17 4 34q0 59 -52 97.5t-172 38.5h-168zM428 1456h436q106 0 187 -18t129.5 -46.5t79 -69t41.5 -80t11 -84.5 q0 -42 -10 -88q-23 -109 -93 -176.5t-170 -96.5q59 -15 103.5 -47.5t70 -74.5t37.5 -86.5t12 -88.5q0 -32 -6 -61q-11 -53 -32.5 -105.5t-69 -115t-111.5 -109t-168 -78t-231 -31.5h-525z" />
<glyph unicode="C" horiz-adv-x="1310" d="M1298 310q-231 -343 -580 -343q-108 0 -193 27t-141.5 74t-93.5 114.5t-53.5 144t-16.5 166.5q0 122 30 261q25 118 68.5 223.5t112 202t155 166t205 110.5t254.5 41q91 0 167.5 -26t128 -70.5t84.5 -98.5t47 -115l-274 -89q-26 66 -83 112.5t-121 46.5q-79 0 -147 -27.5 t-117 -73.5t-88.5 -111.5t-65 -136.5t-43.5 -154q-24 -113 -24 -209q0 -74 14.5 -134t45 -106t81.5 -71t119 -25q135 0 291 201z" />
<glyph unicode="D" horiz-adv-x="1273" d="M1073 752q16 77 16 146q0 145 -66.5 232t-181.5 87h-199l-208 -977h199q146 0 268.5 141t171.5 371zM1356 752q-34 -159 -108.5 -298t-175.5 -239t-228.5 -157.5t-261.5 -57.5h-467l309 1456h467q114 0 206 -39t153 -109t93.5 -165t32.5 -208q0 -89 -20 -183z" />
<glyph unicode="E" horiz-adv-x="1211" d="M424 1456h982l-50 -239h-714l-75 -351h651l-51 -239h-651l-82 -387h714l-51 -240h-982z" />
<glyph unicode="F" horiz-adv-x="1191" d="M424 1456h982l-50 -239h-714l-75 -351h651l-51 -239h-651l-133 -627h-268z" />
<glyph unicode="G" horiz-adv-x="1421" d="M707 -27q-104 0 -186.5 29.5t-137 80t-90.5 121.5t-51.5 149.5t-15.5 167.5q0 117 26 241q22 106 64.5 206.5t110.5 197.5t154 169.5t203 117t249 44.5q154 0 264.5 -79.5t141.5 -217.5l-276 -86q-3 52 -67.5 97.5t-113.5 45.5q-84 0 -161.5 -45t-133 -118t-94.5 -158.5 t-58 -173.5q-21 -97 -21 -191q0 -74 14 -137.5t42 -114t76 -79.5t112 -29q71 0 130.5 24t99 60.5t70 86.5t47 94t26.5 91h-303l51 240h581l-32 -146q-21 -101 -59 -195t-100 -185t-140.5 -158.5t-187.5 -108.5t-234 -41z" />
<glyph unicode="H" horiz-adv-x="1253" d="M424 1456h268l-125 -592h485l125 592h269l-309 -1456h-269l133 625h-485l-133 -625h-268z" />
<glyph unicode="I" horiz-adv-x="555" d="M143 0l309 1456h269l-309 -1456h-269z" />
<glyph unicode="J" horiz-adv-x="1251" d="M227 586h241q-15 -68 -15 -128q0 -51 11.5 -92.5t35 -75.5t65 -52.5t98.5 -18.5q69 0 125.5 31t94 85.5t62 115.5t40.5 135l184 870h268l-184 -870q-60 -282 -228 -451.5t-416 -169.5q-104 0 -183 30t-127 86t-71.5 131.5t-23.5 169.5t23 204z" />
<glyph unicode="K" horiz-adv-x="1333" d="M424 1456h268l-132 -623l675 623h335l-693 -648l413 -808h-336l-321 628l-145 -132l-105 -496h-268z" />
<glyph unicode="L" horiz-adv-x="1220" d="M424 1456h268l-258 -1216h766l-51 -240h-1034z" />
<glyph unicode="M" horiz-adv-x="1548" d="M66 0l309 1456h360l130 -1032l576 1032h359l-309 -1456h-262l212 999l-530 -999h-270l-103 988l-210 -988h-262z" />
<glyph unicode="N" horiz-adv-x="1343" d="M119 0l309 1456h260l374 -940l199 940h269l-309 -1456h-265l-362 973l-207 -973h-268z" />
<glyph unicode="O" horiz-adv-x="1409" d="M1207 754q21 99 21 186q0 66 -12.5 119t-40.5 97t-77.5 68.5t-117.5 24.5q-92 0 -168.5 -44.5t-128.5 -119t-86 -157t-54 -174.5q-24 -115 -24 -214q0 -55 7.5 -102t25 -89t45 -71.5t69 -47t94.5 -17.5q74 0 139.5 33t113.5 86t87.5 125t65 145.5t41.5 151.5zM260 754 q15 71 40.5 142t63.5 144t85.5 138t110 122.5t133 99t157.5 65.5t181 24q104 0 187.5 -29.5t137 -79.5t89.5 -119.5t51 -144t15 -158.5q0 -101 -22 -204q-23 -107 -65 -212.5t-111.5 -210t-155 -183.5t-202 -128t-246.5 -49q-103 0 -184.5 31t-135 83t-88.5 124.5t-50 151 t-15 166.5q0 113 24 227z" />
<glyph unicode="P" horiz-adv-x="1148" d="M564 823h130q275 0 318 197q5 26 5 49q0 148 -239 148h-130zM430 1456h268h130q117 0 208 -26t147 -72t84.5 -107.5t28.5 -136.5q0 -45 -11 -94q-40 -187 -214.5 -313.5t-428.5 -126.5h-130l-123 -580h-268z" />
<glyph unicode="Q" horiz-adv-x="1437" d="M1207 754q21 100 21 187q0 69 -14 125t-42.5 99t-75.5 66.5t-110 23.5q-73 0 -137.5 -29t-112 -76.5t-86 -113.5t-64 -135.5t-41.5 -146.5q-24 -114 -24 -216q0 -54 7 -101t24 -90t43.5 -73.5t67.5 -48.5t94 -18q94 0 141 37l-135 118l189 197l130 -131q33 43 71 145.5 t54 180.5zM258 754q20 95 60 192t108.5 197t153.5 177t204 126t253 49q100 0 180.5 -28t134.5 -76.5t89.5 -115.5t51.5 -143t16 -162q0 -105 -24 -216q-34 -162 -97.5 -289.5t-132.5 -204.5l115 -99l-190 -190l-110 109q-69 -52 -165.5 -83.5t-202.5 -31.5q-98 0 -177 30.5 t-132.5 83t-89.5 125t-52.5 154t-16.5 172.5q0 111 24 224z" />
<glyph unicode="R" horiz-adv-x="1210" d="M564 823h128q277 0 320 197q5 26 5 48q0 149 -241 149h-128zM858 0l-190 581q-24 -2 -65 -2q-21 0 -53 0.5t-38 0.5l-123 -580h-268l309 1456h268h128q118 0 209.5 -26t147.5 -72.5t84.5 -108t28.5 -136.5q0 -45 -10 -93q-26 -122 -120.5 -229t-240.5 -164l239 -627h-306 z" />
<glyph unicode="S" horiz-adv-x="1202" d="M169 404l277 43q2 -47 14.5 -87t37 -74t67.5 -53.5t100 -19.5q111 0 182.5 52.5t90.5 138.5q5 23 5 44q0 36 -16.5 67t-42 51.5t-66 42t-78 36.5t-89.5 38t-90 43q-45 24 -76.5 46t-63.5 55t-48 76.5t-16 97.5q0 42 10 89q28 130 118.5 223.5t207 136t244.5 42.5 q168 0 278 -87t126 -219l-284 -51q-12 56 -52 86t-119 30q-93 0 -160 -37.5t-85 -123.5q-2 -11 -2 -22q0 -36 23.5 -66.5t66.5 -54.5t85 -43l95 -40q53 -21 81 -36q54 -28 93 -56.5t73 -66.5t51 -87t17 -109q0 -49 -12 -105q-28 -131 -117.5 -231t-214.5 -151t-266 -51 q-200 0 -323 110t-123 292q0 15 1 31z" />
<glyph unicode="T" horiz-adv-x="1353" d="M387 1456h1202l-50 -239h-457l-259 -1217h-268l259 1217h-477z" />
<glyph unicode="U" horiz-adv-x="1347" d="M1239 1456h274l-161 -762q-73 -341 -258 -532t-443 -191q-204 0 -312.5 122t-108.5 347q0 116 29 254l161 762h274l-161 -762q-28 -130 -28 -225q0 -256 197 -256q273 0 376 481z" />
<glyph unicode="V" horiz-adv-x="1302" d="M1262 1456h278l-726 -1456h-317l-118 1456h289l73 -1045z" />
<glyph unicode="W" horiz-adv-x="1669" d="M383 1456h281l-55 -918l398 891h282l35 -897l338 924h236l-546 -1456h-312l-21 935l-420 -935h-296z" />
<glyph unicode="X" horiz-adv-x="1298" d="M368 1456h309l163 -501l378 501h310l-578 -729l275 -727h-337l-153 460l-345 -460h-337l582 727z" />
<glyph unicode="Y" horiz-adv-x="1314" d="M375 1456h285l196 -537l423 537h279l-611 -751l-150 -705h-269l150 705z" />
<glyph unicode="Z" horiz-adv-x="1417" d="M448 1456h1167l-1056 -1216h792l-51 -240h-1228l1059 1217h-733z" />
<glyph unicode="[" horiz-adv-x="743" d="M602 -98h-502l347 1630h502l-51 -240h-248l-245 -1153h248z" />
<glyph unicode="\" horiz-adv-x="856" d="M585 0l-296 1543h292l314 -1543h-310z" />
<glyph unicode="]" horiz-adv-x="743" d="M98 -98l51 239h246l245 1151h-246l51 240h500l-347 -1630h-500z" />
<glyph unicode="^" horiz-adv-x="1081" d="M1170 1148h-271l-98 161l-157 -158h-277l356 341h236z" />
<glyph unicode="_" horiz-adv-x="1241" d="M18 -281l51 240h1089l-51 -240h-1089z" />
<glyph unicode="`" horiz-adv-x="536" d="M568 1132l-182 286q-4 8 -4 19q0 7 1 15q6 27 29 57.5t46 43.5q52 32 96 32q30 0 40 -19l144 -312q1 -3 1 -6.5t-1 -7.5q-4 -19 -26.5 -46.5t-39.5 -38.5q-47 -32 -84 -32q-16 0 -20 9z" />
<glyph unicode="a" horiz-adv-x="1080" d="M646 524q-88 0 -156 -50.5t-82 -117.5q-3 -15 -3 -29q0 -58 46.5 -97t124.5 -39q88 0 150 48.5t77 116.5q3 16 3 32q0 58 -42 97t-118 39zM608 741q99 0 163 -50.5t71 -114.5l17 82q8 39 8 71q0 41 -13 72t-33 48.5t-48.5 29t-54.5 15t-55 3.5q-46 0 -92.5 -9.5t-70 -18 t-65.5 -25.5l-68 164q52 36 155.5 65t183.5 29q70 0 130 -11.5t113.5 -38t91.5 -66.5t60 -100.5t22 -135.5q0 -65 -16 -141l-64 -304l-65 -305h-257l29 136q-35 -64 -119 -114.5t-183 -50.5q-130 0 -211 82.5t-81 214.5q0 44 10 90q35 164 163.5 273.5t278.5 109.5z" />
<glyph unicode="b" horiz-adv-x="1122" d="M377 0h-258l309 1454h258l-114 -537q69 82 164 132.5t182 50.5q73 0 128 -26.5t88.5 -75t49.5 -112.5t16 -143q0 -98 -24 -211q-25 -117 -69 -216.5t-105.5 -177t-145 -122t-178.5 -44.5q-86 0 -159.5 51.5t-108.5 133.5zM917 537q15 68 15 125q0 104 -45.5 154 t-111.5 50q-39 0 -79.5 -16.5t-82 -52t-76.5 -103t-54 -157.5q-14 -68 -14 -123q0 -57 14.5 -98.5t39 -64.5t52.5 -34t60 -11q80 0 164.5 87.5t117.5 243.5z" />
<glyph unicode="c" horiz-adv-x="1047" d="M927 756q-41 114 -156 114q-99 0 -189 -95.5t-121 -242.5q-11 -50 -11 -95q0 -107 54.5 -170.5t144.5 -63.5q38 0 67.5 10t47.5 26t35 36t30 40l190 -111q-80 -97 -190.5 -165t-228.5 -68q-199 0 -309 108t-110 296q0 74 18 157q54 252 228.5 410t392.5 158 q117 0 212.5 -63.5t130.5 -168.5z" />
<glyph unicode="d" horiz-adv-x="1122" d="M760 0l33 157q-70 -82 -165 -133.5t-181 -51.5q-73 0 -128 26t-89 74t-50.5 111.5t-16.5 142.5q0 95 24 206q34 158 99 283t169.5 205t231.5 80q87 0 160 -50.5t108 -132.5l114 537h258l-309 -1454h-258zM448 537q-12 -59 -12 -111q0 -105 45.5 -162.5t108.5 -57.5 q39 0 79.5 16.5t82 52.5t76.5 103.5t54 158.5q14 67 14 122q0 56 -14.5 98t-39 64.5t-52.5 33.5t-60 11q-85 0 -165.5 -80.5t-116.5 -248.5z" />
<glyph unicode="e" horiz-adv-x="1093" d="M501 651h413q3 20 3 38q0 78 -42 128.5t-122 50.5q-89 0 -157.5 -64t-94.5 -153zM621 201q99 0 168 66l207 -98q-81 -94 -199.5 -146t-224.5 -52q-171 0 -278 118t-107 307q0 69 15 141q34 158 126 287.5t217 201.5t257 72q164 0 259.5 -111t95.5 -293q0 -75 -17 -157 l-14 -68h-664q-9 -47 -9 -86q0 -44 11.5 -77.5t28.5 -53t40.5 -31.5t44.5 -16t43 -4z" />
<glyph unicode="f" horiz-adv-x="782" d="M650 844l-179 -844h-258l179 844h-139l49 229h139l17 80q11 50 50.5 108.5t95.5 109.5t130 84.5t145 33.5q64 0 119 -23t90 -66l-187 -179q-13 19 -37 29t-43 10q-82 0 -101 -87l-21 -100h165l-49 -229h-165z" />
<glyph unicode="g" horiz-adv-x="1137" d="M745 -70l48 227q-70 -82 -165 -133.5t-181 -51.5q-73 0 -128 26t-89 74t-50.5 111.5t-16.5 142.5q0 95 24 206q34 158 99 283t169.5 205t231.5 80q87 0 160 -50.5t108 -132.5l33 156h258l-239 -1123q-17 -81 -62.5 -154t-114 -131t-166.5 -92t-210 -34q-82 0 -148 20.5 t-107 53t-68.5 76.5t-38.5 87.5t-11 89.5q0 18 2 35l245 11q-1 -8 -1 -15q0 -61 43 -97.5t131 -36.5q94 0 161 44.5t83 122.5zM448 537q-12 -59 -12 -111q0 -105 45.5 -162.5t108.5 -57.5q39 0 79.5 16.5t82 52.5t76.5 103.5t54 158.5q14 67 14 122q0 56 -14.5 98t-39 64.5 t-52.5 33.5t-60 11q-85 0 -165.5 -80.5t-116.5 -248.5z" />
<glyph unicode="h" horiz-adv-x="1121" d="M377 0h-258l309 1454h258l-115 -542q62 82 161 136t202 54q46 0 87.5 -20t75.5 -56.5t54 -96t20 -131.5q0 -61 -15 -130l-142 -668h-258l114 537q23 107 23 177q0 87 -34 120t-99 33q-35 0 -64 -8t-60 -30t-56.5 -58t-48.5 -95.5t-40 -139.5z" />
<glyph unicode="i" horiz-adv-x="534" d="M405 1334q13 65 67 112.5t114 47.5q51 0 84 -36t33 -89q0 -18 -4 -35q-14 -65 -67.5 -112.5t-113.5 -47.5q-51 0 -84 35.5t-33 89.5q0 17 4 35zM367 1073h258l-228 -1073h-258z" />
<glyph unicode="j" horiz-adv-x="534" d="M405 1334q13 65 67 112.5t114 47.5q51 0 84 -36t33 -89q0 -18 -4 -35q-14 -65 -67.5 -112.5t-113.5 -47.5q-51 0 -84 35.5t-33 89.5q0 17 4 35zM-307 -333l206 172q8 -17 31.5 -29.5t49.5 -12.5q50 0 89.5 31.5t49.5 79.5l248 1165h258l-235 -1108q-21 -100 -96.5 -192.5 t-177 -148.5t-196.5 -56q-83 0 -135 20t-92 79z" />
<glyph unicode="k" horiz-adv-x="999" d="M705 597l291 -597h-294l-212 467l-19 -23l-94 -444h-258l309 1454h258l-157 -738l357 357h315z" />
<glyph unicode="l" horiz-adv-x="561" d="M457 281q-3 -14 -3 -26q0 -61 77 -61l-47 -223q-154 0 -226.5 44.5t-72.5 154.5q0 46 13 106l250 1178h258z" />
<glyph unicode="m" horiz-adv-x="1575" d="M924 0h-258l115 539q25 118 25 189q0 69 -24 104.5t-77 35.5q-82 0 -130.5 -82.5t-82.5 -246.5l-115 -539h-258l228 1073h258l-34 -158q24 30 55 59.5t71.5 60t88.5 49t94 18.5q42 0 74.5 -12t52.5 -32.5t34 -43.5t20 -50t9 -46t4 -37t1 -19q37 53 88 104t122 93.5 t131 42.5q102 0 159 -68.5t57 -198.5q0 -75 -20 -167l-142 -668h-258l115 539q25 119 25 189q0 69 -24 104.5t-76 35.5q-81 0 -130 -83t-83 -246z" />
<glyph unicode="n" horiz-adv-x="1121" d="M377 0h-258l228 1074h258l-34 -162q62 82 161 136t202 54q46 0 87.5 -20t75.5 -56.5t54 -96t20 -131.5q0 -61 -15 -130l-142 -668h-258l114 537q23 107 23 177q0 87 -34 120t-99 33q-35 0 -64 -8t-60 -30t-56.5 -58t-48.5 -95.5t-40 -139.5z" />
<glyph unicode="o" horiz-adv-x="1105" d="M458 537q-16 -78 -16 -138q0 -193 168 -193q222 0 292 331q17 78 17 138q0 191 -169 191q-221 0 -292 -329zM206 537q56 260 212 411.5t381 151.5q182 0 277 -100.5t95 -280.5q0 -84 -21 -182q-56 -261 -211 -413.5t-380 -152.5q-183 0 -278.5 100.5t-95.5 282.5 q0 84 21 183z" />
<glyph unicode="p" horiz-adv-x="1132" d="M286 -426h-258l319 1499h258l-33 -156q69 82 164 132.5t182 50.5q73 0 128 -26.5t88.5 -75t49.5 -112.5t16 -143q0 -98 -24 -211q-25 -117 -69 -216.5t-105.5 -177t-145 -122t-178.5 -44.5q-86 0 -159.5 51.5t-108.5 133.5zM917 537q15 68 15 125q0 104 -45.5 154 t-111.5 50q-39 0 -79.5 -16.5t-82 -52t-76.5 -103t-54 -157.5q-14 -68 -14 -123q0 -57 14.5 -98.5t39 -64.5t52.5 -34t60 -11q80 0 164.5 87.5t117.5 243.5z" />
<glyph unicode="q" horiz-adv-x="1132" d="M730 -141l63 298q-70 -82 -165 -133.5t-181 -51.5q-73 0 -128 26t-89 74t-50.5 111.5t-16.5 142.5q0 95 24 206q34 158 99 283t169.5 205t231.5 80q87 0 160 -50.5t108 -132.5l33 156h258l-257 -1210q-4 -18 -4 -30q0 -25 20.5 -34.5t74.5 -9.5l-50 -238 q-154 0 -232 52.5t-78 165.5q0 41 10 90zM448 537q-12 -59 -12 -111q0 -105 45.5 -162.5t108.5 -57.5q39 0 79.5 16.5t82 52.5t76.5 103.5t54 158.5q14 67 14 122q0 56 -14.5 98t-39 64.5t-52.5 33.5t-60 11q-85 0 -165.5 -80.5t-116.5 -248.5z" />
<glyph unicode="r" horiz-adv-x="858" d="M908 807q-99 61 -144 61q-55 0 -102 -29t-79 -77.5t-52.5 -100.5t-32.5 -108l-118 -553h-258l228 1073h258l-34 -161q60 80 144.5 135t144.5 55q50 0 99.5 -26.5t84.5 -67.5z" />
<glyph unicode="s" horiz-adv-x="958" d="M446 491q-43 26 -68.5 45t-49 45t-34 57.5t-10.5 73.5t12 98q28 133 145.5 211.5t286.5 78.5q78 0 140 -24.5t99.5 -65t57 -90t19.5 -103.5v-16l-249 -43v11q0 59 -28.5 80t-83.5 21q-60 0 -97 -18t-48 -69q-2 -9 -2 -18q0 -22 13 -38.5t39 -30t54 -24.5l72 -30 q44 -19 79 -38q82 -45 121.5 -100.5t39.5 -136.5q0 -44 -11 -97q-28 -129 -163.5 -214t-300.5 -85q-162 0 -250 86t-89 233l240 39v-5q0 -58 41.5 -90.5t104.5 -32.5q35 0 59.5 3t50 12t42 29t22.5 50q2 8 2 16q0 24 -15 43.5t-43.5 36.5t-57.5 31l-70 32q-42 20 -70 37z " />
<glyph unicode="t" horiz-adv-x="706" d="M392 844h-141l49 229h141l53 250h258l-53 -250h154l-49 -229h-154l-116 -547q-3 -15 -3 -27q0 -68 94 -68h39l-46 -217h-39q-171 0 -244 49t-73 153q0 46 13 106z" />
<glyph unicode="u" horiz-adv-x="1112" d="M1003 0h-258l34 161q-62 -81 -160 -135.5t-197 -54.5q-110 0 -170 79.5t-60 235.5q0 109 30 249l114 538h258l-114 -537q-19 -89 -19 -155q0 -51 11 -87t30.5 -54t41 -26t46.5 -8q34 0 68.5 14t73 47.5t72 103t54.5 166.5l114 536h259z" />
<glyph unicode="v" horiz-adv-x="1060" d="M411 0l-111 1073h271l34 -686l339 686h247l-567 -1073h-213z" />
<glyph unicode="w" horiz-adv-x="1449" d="M856 664l-283 -664h-201l-87 1073h255l26 -669l273 673h232l-12 -670l311 666h243l-543 -1073h-219z" />
<glyph unicode="x" horiz-adv-x="1054" d="M1021 0h-307l-119 335l-261 -335h-307l455 536l-209 537h290l120 -330l257 330h314l-458 -528z" />
<glyph unicode="y" horiz-adv-x="1106" d="M997 -29q-22 -106 -110.5 -208t-207 -165t-223.5 -63q-149 0 -243.5 69.5t-120.5 171.5l228 112q7 -55 53.5 -88t125.5 -33q84 0 150 47t83 127l47 220q-62 -81 -160 -135.5t-197 -54.5q-110 0 -170 79.5t-60 235.5q0 109 30 249l114 538h258l-114 -537q-19 -89 -19 -155 q0 -51 11 -87t30.5 -54t41 -26t46.5 -8q34 0 68.5 14t73 47.5t72 103t54.5 166.5l114 536h259l-222 -1044z" />
<glyph unicode="z" horiz-adv-x="1005" d="M534 240h406l-51 -240h-823l613 834h-387l51 239h806z" />
<glyph unicode="{" horiz-adv-x="747" d="M235 729q74 23 131 93.5t90.5 161.5t57.5 180l47 170q23 80 45 110q16 21 34 38t37.5 28.5t41.5 20t45 13.5t48.5 8.5t52 4.5t55 2.5t57.5 1.5l-45 -213q-86 0 -129 -32t-62 -120q-88 -409 -232 -467q70 -33 70 -185q0 -107 -36 -282q-7 -35 -7 -60q0 -51 31.5 -71 t101.5 -20l-46 -213q-23 0 -45.5 1t-44 1.5t-41.5 2t-38.5 4.5t-35.5 7t-32 10t-28 14.5t-23.5 19.5t-19 25t-13.5 31q-4 15 -4 39q0 41 25 198.5t25 243.5q0 195 -113 234z" />
<glyph unicode="|" horiz-adv-x="468" d="M115 0l309 1454h243l-309 -1454h-243z" />
<glyph unicode="}" horiz-adv-x="747" d="M841 729q-74 -22 -131 -92.5t-90.5 -161.5t-57.5 -181l-47 -170q-23 -80 -45 -110q-13 -17 -27 -31t-29 -25t-31.5 -19.5t-34 -14.5t-36.5 -10t-38.5 -7t-40.5 -4.5t-43 -2t-44.5 -1.5t-46.5 -1l46 213q86 0 128.5 31.5t61.5 119.5q85 410 232 467q-71 34 -71 187 q0 109 37 280q8 35 8 61q0 51 -31.5 71t-101.5 20l45 213q29 0 57 -1.5t54 -2.5t49.5 -4.5t44.5 -8.5t39.5 -13.5t33 -20t25.5 -28.5t18 -38q4 -15 4 -39q0 -41 -25 -198.5t-25 -242.5q0 -195 113 -235z" />
<glyph unicode="~" horiz-adv-x="759" d="M225 808q8 5 33 24t40.5 29t39.5 23.5t47 20t45 6.5q27 0 52.5 -15.5t45.5 -37.5l42 -46q21 -22 47.5 -37.5t55.5 -15.5q32 0 75 21.5t62 36.5l64 49l-55 -260q-6 -4 -36 -25.5t-49 -33t-51.5 -23.5t-61.5 -12q-39 0 -75.5 24t-60.5 52t-54 52t-57 24t-55 -10 t-45.5 -20.5t-50.5 -33.5t-49 -33z" />
<glyph unicode="&#xa1;" horiz-adv-x="309" d="M552 1322.99q-14 -68.001 -72.5 -116.005q-58.5 -48.0029 -126.5 -48.0068q-59 -0.00390625 -96 36.4941q-37 36.4971 -37 93.4971q0 17 4 34q14 68.001 72.5 116.005t126.5 48.0078q58 0.00390625 95.5 -36.9941t37.5 -92.998q0 -17 -4 -34zM223 1013.97 q5 23.001 45 41.0029q40 18.0029 67 18.0039q26 0.00195312 57 -15.9961t31 -36.998q0 -3 -1 -6l-160 -949.01q-8 -37.001 -62 -65.5039t-97 -28.5059q-40 -0.00292969 -81.5 25.4951q-41.5 25.4971 -41.5 57.4971q0 5 1 9z" />
<glyph unicode="&#xa2;" horiz-adv-x="884" d="M375 293q-82 14 -131.5 78.5t-49.5 165.5q0 45 10 94q29 134 123 227t187 118l50 232h230l-49 -231q40 -9 89.5 -49.5t75.5 -90.5l-186 -128h-1q-2 0 -13 12.5t-37 25.5t-63 13q-56 0 -104 -40t-59 -91q-4 -19 -4 -38q0 -48 27 -80t78 -32q30 0 54.5 7.5t32.5 12t30 24 t25 21.5l132 -136q-117 -114 -218 -123l-44 -207h-230z" />
<glyph unicode="&#xa3;" horiz-adv-x="1267" d="M411 549h-220l48 229h237q37 172 83 297t109.5 217t147.5 137.5t190 45.5q125 0 192 -81t85 -256l-235 -22q0 28 -3.5 48t-12 40.5t-27.5 31.5t-48 11q-32 0 -62 -29t-53 -75t-40 -94.5t-27 -96.5l-22 -106l-15 -68h357l-48 -229h-355q-23 -69 -63 -165t-82 -153h463 q29 0 59.5 24.5t49.5 52.5l114 -152q-103 -156 -275 -156h-823q18 38 80.5 143t116.5 211.5t79 194.5z" />
<glyph unicode="&#xa4;" horiz-adv-x="987" d="M553 752q-2 -11 -2 -21q0 -35 23.5 -55.5t58.5 -20.5q38 0 73.5 29.5t43.5 67.5q3 12 3 23q0 34 -22.5 55.5t-55.5 21.5q-42 0 -77 -28t-45 -72zM690 424q-44 -18 -110 -18q-67 0 -103 16l-25 -117h-334l71 334h111q-5 22 -5 49q0 31 7 62q13 60 40 108h-107l71 334h334 l-23 -108q46 19 111 19q17 0 53 -5.5t49 -13.5l23 108h334l-71 -334h-111q1 -29 1 -42q0 -33 -7 -66q-9 -43 -44 -111h115l-71 -334h-334z" />
<glyph unicode="&#xa5;" horiz-adv-x="1136" d="M555 635h-277l49 229h170l-155 533h283l123 -509l356 509h262l-399 -533h155l-49 -229h-260l-26 -121h260l-48 -229h-260l-61 -285h-258l61 285h-277l48 229h277z" />
<glyph unicode="&#xa6;" horiz-adv-x="405" d="M466 666l-142 -666h-244l142 666h244zM243 768l142 666h244l-142 -666h-244z" />
<glyph unicode="&#xa7;" horiz-adv-x="694" d="M493 1005q15 9 32 9q114 0 192.5 -96t78.5 -247q0 -58 -13 -119q-27 -128 -94.5 -242t-158 -183.5t-178.5 -69.5q-91 0 -150 60t-88 196l224 43v-6q0 -27 20.5 -45t34.5 -18h4q32 0 61 33t47 84q-23 -19 -48 -19q-53 0 -99 20t-82 59t-57 101t-21 139q0 70 17 150 q27 126 88.5 237t148.5 180.5t177 69.5q95 0 142 -53.5t87 -188.5l-225 -50v7q0 26 -19.5 41t-29.5 15q-53 0 -91 -107zM539 592q9 40 9 81q0 63 -20.5 105.5t-57.5 42.5q-18 0 -29 -11q-7 -35 -7 -71q0 -66 21.5 -114t54.5 -48q1 0 3.5 -0.5t3.5 -0.5q19 0 22 16z" />
<glyph unicode="&#xa8;" horiz-adv-x="933" d="M720 831q14 68 72.5 116t126.5 48q59 0 96 -36.5t37 -93.5q0 -17 -4 -34q-14 -68 -72.5 -116t-126.5 -48q-58 0 -95.5 37t-37.5 93q0 17 4 34zM249 831q14 68 72.5 116t126.5 48q59 0 96 -36.5t37 -93.5q0 -17 -4 -34q-14 -68 -72.5 -116t-126.5 -48q-58 0 -95.5 37 t-37.5 93q0 17 4 34z" />
<glyph unicode="&#xa9;" horiz-adv-x="1089" d="M80 745q49 229 242 391t417 162q127 0 227 -56.5t154.5 -155.5t54.5 -223q0 -58 -13 -118q-31 -150 -131 -277t-240 -201t-287 -74q-128 0 -228 57t-154 156t-54 222q0 58 12 117zM777 579q-100 -83 -202 -83q-91 0 -148 56.5t-57 143.5q0 27 6 55q23 106 112.5 180 t195.5 74q111 0 168 -73l-138 -117q-27 29 -66 29q-38 0 -72 -28t-42 -66q-2 -10 -2 -19q0 -33 21.5 -54.5t54.5 -21.5q45 0 82 27zM259 750q-8 -40 -8 -78q0 -127 83 -210.5t215 -83.5q154 0 285.5 109t163.5 263q9 40 9 79q0 126 -84 209.5t-216 83.5q-153 0 -284 -109 t-164 -263z" />
<glyph unicode="&#xaa;" horiz-adv-x="1080" d="M646 524q-88 0 -156 -50.5t-82 -117.5q-3 -15 -3 -29q0 -58 46.5 -97t124.5 -39q88 0 150 48.5t77 116.5q3 16 3 32q0 58 -42 97t-118 39zM608 741q99 0 163 -50.5t71 -114.5l17 82q8 39 8 71q0 41 -13 72t-33 48.5t-48.5 29t-54.5 15t-55 3.5q-46 0 -92.5 -9.5t-70 -18 t-65.5 -25.5l-68 164q52 36 155.5 65t183.5 29q70 0 130 -11.5t113.5 -38t91.5 -66.5t60 -100.5t22 -135.5q0 -65 -16 -141l-64 -304l-65 -305h-257l29 136q-35 -64 -119 -114.5t-183 -50.5q-130 0 -211 82.5t-81 214.5q0 44 10 90q35 164 163.5 273.5t278.5 109.5z" />
<glyph unicode="&#xab;" horiz-adv-x="907" d="M830 1118h215l-254 -291l130 -291h-215l-131 291zM478 1118h219l-254 -291l126 -291h-215l-127 291z" />
<glyph unicode="&#xac;" horiz-adv-x="1120" d="M1078 350h-230l74 348h-631l52 244h861z" />
<glyph unicode="&#xad;" horiz-adv-x="950" d="M285 926h772l-51 -240h-772z" />
<glyph unicode="&#xae;" horiz-adv-x="1224" d="M488 963q-10 -45 -10 -85q0 -64 23.5 -115t62 -81.5t85 -46.5t95.5 -16q57 0 118.5 23.5t118.5 66t101 109t61 145.5q9 45 9 86q0 67 -24.5 121t-63.5 86t-83 49t-88 17q-126 0 -247.5 -95t-157.5 -264zM289 963q24 111 76.5 205t119.5 157.5t146 108.5t155.5 65.5 t148.5 20.5q185 0 303 -119.5t118 -309.5q0 -62 -14 -128q-33 -156 -136.5 -282t-237.5 -193t-267 -67q-65 0 -126.5 16.5t-116 50.5t-95.5 82.5t-64.5 116.5t-23.5 148q0 61 14 128zM771 982q6 0 19.5 -0.5t21.5 -0.5q48 0 63 9.5t23 48.5q2 12 2 21q0 24 -18 30.5t-65 6.5 h-22zM683 1230h140q106 0 161 -32.5t55 -105.5q0 -24 -6 -53q-8 -37 -22 -63t-30 -39t-36 -24.5t-39 -19.5l56 -182h-151l-35 167l-26 5l-37 -171h-140z" />
<glyph unicode="&#xaf;" horiz-adv-x="706" d="M302 1171h604l-49 -231h-604z" />
<glyph unicode="&#xb0;" horiz-adv-x="763" d="M406 1178q-3 -16 -3 -32q0 -52 32.5 -85t84.5 -33q61 0 111.5 43.5t63.5 106.5q4 17 4 34q0 50 -32 83t-84 33q-61 0 -112 -44t-65 -106zM233 1178q28 130 140.5 221t244.5 91q114 0 185.5 -70t71.5 -177q0 -32 -7 -65q-27 -130 -139 -221t-244 -91q-114 0 -186.5 70.5 t-72.5 177.5q0 32 7 64z" />
<glyph unicode="&#xb1;" horiz-adv-x="983" d="M352 1047h266l64 302h240l-64 -302h287l-51 -240h-288l-61 -287h-239l61 287h-266zM223 432h772l-51 -240h-772z" />
<glyph unicode="&#xb2;" d="M587 1076l-223 71q60 145 214 245t306 100q55 0 105.5 -9t100 -32.5t86 -59.5t59 -93t22.5 -130q0 -59 -15 -127q-26 -121 -79 -204t-164 -174q-65 -53 -193.5 -135.5t-222 -153t-130.5 -134.5h659l-51 -240h-969q37 172 104 291t216 243q58 48 140 102l146 93 q63 40 125 87.5t102.5 103.5t54.5 121q7 34 7 63q0 73 -41 110.5t-113 37.5q-82 0 -141.5 -43t-104.5 -133z" />
<glyph unicode="&#xb3;" d="M162 323l273 70q17 -93 75.5 -136t132.5 -43q102 0 180.5 61.5t98.5 153.5q4 21 4 41q0 77 -55 129t-135 52h-165l46 213h142q75 0 142 59t83 131q6 29 6 55q0 70 -43 107t-112 37q-59 0 -110.5 -33t-79.5 -78l-236 66q167 282 476 282q77 0 142.5 -17t117.5 -51 t81.5 -92t29.5 -135q0 -46 -11 -99q-37 -173 -204 -276q34 -27 59 -52t50 -61t38.5 -81.5t13.5 -98.5q0 -46 -11 -98q-40 -187 -212.5 -322t-386.5 -135q-113 0 -200.5 34.5t-149.5 115t-80 201.5z" />
<glyph unicode="&#xb4;" horiz-adv-x="577" d="M492 1132q-10 -9 -24 -9q-17 0 -38 10.5t-33 21.5q-11 9 -21 32t-10 42q0 6 1 11q2 9 7 14l275 312q19 19 48 19q46 0 82 -32q14 -11 24 -34t10 -48q0 -10 -2 -20q-3 -19 -17 -33z" />
<glyph unicode="&#xb5;" horiz-adv-x="1128" d="M404 78l-101 -475h-244l273 1286h248l-90 -422q-9 -45 -9 -83q0 -49 14.5 -85.5t38 -56t48 -28.5t48.5 -9q67 0 139.5 86.5t91.5 175.5l90 422h244l-189 -889h-244l18 84q-35 -52 -94 -82.5t-100 -30.5q-55 0 -113 33t-69 74z" />
<glyph unicode="&#xb6;" horiz-adv-x="1286" d="M995 1221l-91 -426q6 0 73 -7t72 -7l95 448q-6 0 -75 -4t-74 -4zM735 1144q-18 -5 -44 -18t-50.5 -27t-45.5 -38t-27 -53q-4 -19 -4 -37q0 -29 11.5 -51.5t28.5 -34.5t35.5 -22.5t32.5 -15.5zM784 229h148l71 336q-5 0 -73 2.5t-74 2.5zM492 0l131 618q-54 16 -94 31.5 t-82.5 40.5t-69.5 55t-44.5 74.5t-17.5 98.5q0 42 10 90q18 84 80.5 156.5t150.5 122.5t195 85.5t214.5 52t208.5 16.5h272l-306 -1441h-648z" />
<glyph unicode="&#xb7;" horiz-adv-x="495" d="M256 766q14 68 72.5 116t126.5 48q59 0 96 -36.5t37 -93.5q0 -17 -4 -34q-14 -68 -72.5 -116t-126.5 -48q-58 0 -95.5 37t-37.5 93q0 17 4 34z" />
<glyph unicode="&#xb8;" horiz-adv-x="528" d="M6 -238l34 17q19 9 39.5 21t37.5 23.5t29 24.5t15 25q6 28 6 42q0 35 -25 69l181 90q69 -76 69 -164q0 -22 -5 -43q-5 -23 -19 -45.5t-33 -41t-43.5 -37t-49.5 -33.5l-53 -28q-27 -15 -51 -25.5t-46 -21.5z" />
<glyph unicode="&#xb9;" d="M754 1184l4 22h-273l39 30l290 220h265l-309 -1456h-268z" />
<glyph unicode="&#xba;" horiz-adv-x="1105" d="M458 537q-16 -78 -16 -138q0 -193 168 -193q222 0 292 331q17 78 17 138q0 191 -169 191q-221 0 -292 -329zM206 537q56 260 212 411.5t381 151.5q182 0 277 -100.5t95 -280.5q0 -84 -21 -182q-56 -261 -211 -413.5t-380 -152.5q-183 0 -278.5 100.5t-95.5 282.5 q0 84 21 183z" />
<glyph unicode="&#xbb;" horiz-adv-x="983" d="M580 1119l131 -292l-255 -290h-215l254 290l-130 291zM932 1119l127 -292l-251 -290h-215l250 290l-130 291z" />
<glyph unicode="&#xbf;" horiz-adv-x="954" d="M880 1331q-14 -68 -72.5 -116t-126.5 -48q-59 0 -96 36.5t-37 93.5q0 17 4 34q14 68 72.5 116t126.5 48q58 0 95.5 -37t37.5 -93q0 -17 -4 -34zM499 932l28 131h268l-41 -195q-14 -67 -60 -121t-103 -93l-113 -76q-57 -39 -102.5 -92t-59.5 -118q-4 -19 -4 -36 q0 -43 25.5 -71.5t62 -40t81.5 -11.5q79 0 141.5 52.5t86.5 131.5l259 -41q-55 -169 -199.5 -278t-335.5 -109q-83 0 -156 20.5t-129.5 58.5t-89 99t-32.5 137q0 40 9 84q16 75 48 138t71.5 105t83.5 77t86.5 63t78.5 55t62 59.5t34 70.5z" />
<glyph unicode="&#xc0;" horiz-adv-x="1292" d="M962 1494l-182 286q-4 8 -4 19q0 7 1 15q6 27 29 57.5t46 43.5q52 32 96 32q30 0 40 -19l144 -312q1 -3 1 -6.5t-1 -7.5q-4 -19 -26.5 -46.5t-39.5 -38.5q-47 -32 -84 -32q-16 0 -20 9zM922 1048l-249 -423h300zM996 379h-448l-217 -379h-311l872 1456h256l199 -1456 h-307z" />
<glyph unicode="&#xc1;" horiz-adv-x="1292" d="M1074 1499q-10 -9 -24 -9q-17 0 -38 10.5t-33 21.5q-11 9 -21 32t-10 42q0 6 1 11q2 9 7 14l275 312q19 19 48 19q46 0 82 -32q14 -11 24 -34t10 -48q0 -10 -2 -20q-3 -19 -17 -33zM922 1048l-249 -423h300zM996 379h-448l-217 -379h-311l872 1456h256l199 -1456h-307z " />
<glyph unicode="&#xc2;" horiz-adv-x="1292" d="M1436 1560h-271l-98 161l-157 -158h-277l356 341h236zM922 1048l-249 -423h300zM996 379h-448l-217 -379h-311l872 1456h256l199 -1456h-307z" />
<glyph unicode="&#xc3;" horiz-adv-x="1292" d="M767 1814q8 5 33 24t40.5 29t39.5 23.5t47 20t45 6.5q27 0 52.5 -15.5t45.5 -37.5l42 -46q21 -22 47.5 -37.5t55.5 -15.5q32 0 75 21.5t62 36.5l64 49l-55 -260q-6 -4 -36 -25.5t-49 -33t-51.5 -23.5t-61.5 -12q-39 0 -75.5 24t-60.5 52t-54 52t-57 24t-55 -10 t-45.5 -20.5t-50.5 -33.5t-49 -33zM922 1048l-249 -423h300zM996 379h-448l-217 -379h-311l872 1456h256l199 -1456h-307z" />
<glyph unicode="&#xc4;" horiz-adv-x="1292" d="M1134 1667q14 68 72.5 116t126.5 48q59 0 96 -36.5t37 -93.5q0 -17 -4 -34q-14 -68 -72.5 -116t-126.5 -48q-58 0 -95.5 37t-37.5 93q0 17 4 34zM663 1667q14 68 72.5 116t126.5 48q59 0 96 -36.5t37 -93.5q0 -17 -4 -34q-14 -68 -72.5 -116t-126.5 -48q-58 0 -95.5 37 t-37.5 93q0 17 4 34zM922 1048l-249 -423h300zM996 379h-448l-217 -379h-311l872 1456h256l199 -1456h-307z" />
<glyph unicode="&#xc5;" horiz-adv-x="1292" d="M941 1784q-3 -16 -3 -32q0 -52 32.5 -85t84.5 -33q61 0 111.5 43.5t63.5 106.5q4 17 4 34q0 50 -32 83t-84 33q-61 0 -112 -44t-65 -106zM768 1784q28 130 140.5 221t244.5 91q114 0 185.5 -70t71.5 -177q0 -32 -7 -65q-27 -130 -139 -221t-244 -91q-114 0 -186.5 70.5 t-72.5 177.5q0 32 7 64zM922 1048l-249 -423h300zM996 379h-448l-217 -379h-311l872 1456h256l199 -1456h-307z" />
<glyph unicode="&#xc6;" horiz-adv-x="1589" d="M946 596h-278l-360 -596h-298l885 1456h887l-53 -253h-388l-77 -363h388l-54 -250h-389l-72 -340h389l-53 -250h-654zM1092 1286l-293 -447h198z" />
<glyph unicode="&#xc7;" horiz-adv-x="1220" d="M429 -347l34 17q19 9 39.5 21t37.5 23.5t29 24.5t15 25q6 28 6 42q0 35 -25 69l181 90q69 -76 69 -164q0 -22 -5 -43q-5 -23 -19 -45.5t-33 -41t-43.5 -37t-49.5 -33.5l-53 -28q-27 -15 -51 -25.5t-46 -21.5zM1308 310q-231 -343 -580 -343q-108 0 -193 27t-141.5 74 t-93.5 114.5t-53.5 144t-16.5 166.5q0 122 30 261q25 118 68.5 223.5t112 202t155 166t205 110.5t254.5 41q91 0 167.5 -26t128 -70.5t84.5 -98.5t47 -115l-274 -89q-26 66 -83 112.5t-121 46.5q-79 0 -147 -27.5t-117 -73.5t-88.5 -111.5t-65 -136.5t-43.5 -154 q-24 -113 -24 -209q0 -74 14.5 -134t45 -106t81.5 -71t119 -25q135 0 291 201z" />
<glyph unicode="&#xc8;" horiz-adv-x="985" d="M913 1503l-182 286q-4 8 -4 19q0 7 1 15q6 27 29 57.5t46 43.5q52 32 96 32q30 0 40 -19l144 -312q1 -3 1 -6.5t-1 -7.5q-4 -19 -26.5 -46.5t-39.5 -38.5q-47 -32 -84 -32q-16 0 -20 9zM424 1456h982l-50 -239h-714l-75 -351h651l-51 -239h-651l-82 -387h714l-51 -240 h-982z" />
<glyph unicode="&#xc9;" horiz-adv-x="1150" d="M989 1503q-10 -9 -24 -9q-17 0 -38 10.5t-33 21.5q-11 9 -21 32t-10 42q0 6 1 11q2 9 7 14l275 312q19 19 48 19q46 0 82 -32q14 -11 24 -34t10 -48q0 -10 -2 -20q-3 -19 -17 -33zM424 1456h982l-50 -239h-714l-75 -351h651l-51 -239h-651l-82 -387h714l-51 -240h-982z " />
<glyph unicode="&#xca;" horiz-adv-x="1150" d="M1376 1537h-271l-98 161l-157 -158h-277l356 341h236zM424 1456h982l-50 -239h-714l-75 -351h651l-51 -239h-651l-82 -387h714l-51 -240h-982z" />
<glyph unicode="&#xcb;" horiz-adv-x="1150" d="M1085 1681q14 68 72.5 116t126.5 48q59 0 96 -36.5t37 -93.5q0 -17 -4 -34q-14 -68 -72.5 -116t-126.5 -48q-58 0 -95.5 37t-37.5 93q0 17 4 34zM614 1681q14 68 72.5 116t126.5 48q59 0 96 -36.5t37 -93.5q0 -17 -4 -34q-14 -68 -72.5 -116t-126.5 -48q-58 0 -95.5 37 t-37.5 93q0 17 4 34zM424 1456h982l-50 -239h-714l-75 -351h651l-51 -239h-651l-82 -387h714l-51 -240h-982z" />
<glyph unicode="&#xcc;" horiz-adv-x="667" d="M528 1503l-182 286q-4 8 -4 19q0 7 1 15q6 27 29 57.5t46 43.5q52 32 96 32q30 0 40 -19l144 -312q1 -3 1 -6.5t-1 -7.5q-4 -19 -26.5 -46.5t-39.5 -38.5q-47 -32 -84 -32q-16 0 -20 9zM143 0l309 1456h269l-309 -1456h-269z" />
<glyph unicode="&#xcd;" horiz-adv-x="667" d="M624 1494q-10 -9 -24 -9q-17 0 -38 10.5t-33 21.5q-11 9 -21 32t-10 42q0 6 1 11q2 9 7 14l275 312q19 19 48 19q46 0 82 -32q14 -11 24 -34t10 -48q0 -10 -2 -20q-3 -19 -17 -33zM143 0l309 1456h269l-309 -1456h-269z" />
<glyph unicode="&#xce;" horiz-adv-x="667" d="M1001 1537h-271l-98 161l-157 -158h-277l356 341h236zM143 0l309 1456h269l-309 -1456h-269z" />
<glyph unicode="&#xcf;" horiz-adv-x="667" d="M713 1693q14 68 72.5 116t126.5 48q59 0 96 -36.5t37 -93.5q0 -17 -4 -34q-14 -68 -72.5 -116t-126.5 -48q-58 0 -95.5 37t-37.5 93q0 17 4 34zM242 1693q14 68 72.5 116t126.5 48q59 0 96 -36.5t37 -93.5q0 -17 -4 -34q-14 -68 -72.5 -116t-126.5 -48q-58 0 -95.5 37 t-37.5 93q0 17 4 34zM143 0l309 1456h269l-309 -1456h-269z" />
<glyph unicode="&#xd0;" horiz-adv-x="1480" d="M390 612h-125l51 239h125l128 605h436q124 0 224.5 -40.5t166.5 -113.5t101 -172.5t35 -217.5q0 -90 -20 -185q-32 -151 -109 -285t-183.5 -231.5t-242.5 -154t-281 -56.5h-225h-211zM658 612l-78 -369h168q171 0 311 134.5t186 349.5q15 72 15 138q0 158 -83 252 t-224 94h-169l-76 -360h247l-51 -239h-246z" />
<glyph unicode="&#xd1;" horiz-adv-x="1292" d="M702 1793q8 5 33 24t40.5 29t39.5 23.5t47 20t45 6.5q27 0 52.5 -15.5t45.5 -37.5l42 -46q21 -22 47.5 -37.5t55.5 -15.5q32 0 75 21.5t62 36.5l64 49l-55 -260q-6 -4 -36 -25.5t-49 -33t-51.5 -23.5t-61.5 -12q-39 0 -75.5 24t-60.5 52t-54 52t-57 24t-55 -10 t-45.5 -20.5t-50.5 -33.5t-49 -33zM119 0l309 1456h260l374 -940l199 940h269l-309 -1456h-265l-362 973l-207 -973h-268z" />
<glyph unicode="&#xd2;" horiz-adv-x="1347" d="M976 1527l-182 286q-4 8 -4 19q0 7 1 15q6 27 29 57.5t46 43.5q52 32 96 32q30 0 40 -19l144 -312q1 -3 1 -6.5t-1 -7.5q-4 -19 -26.5 -46.5t-39.5 -38.5q-47 -32 -84 -32q-16 0 -20 9zM1207 754q21 99 21 186q0 66 -12.5 119t-40.5 97t-77.5 68.5t-117.5 24.5 q-92 0 -168.5 -44.5t-128.5 -119t-86 -157t-54 -174.5q-24 -115 -24 -214q0 -55 7.5 -102t25 -89t45 -71.5t69 -47t94.5 -17.5q74 0 139.5 33t113.5 86t87.5 125t65 145.5t41.5 151.5zM260 754q15 71 40.5 142t63.5 144t85.5 138t110 122.5t133 99t157.5 65.5t181 24 q104 0 187.5 -29.5t137 -79.5t89.5 -119.5t51 -144t15 -158.5q0 -101 -22 -204q-23 -107 -65 -212.5t-111.5 -210t-155 -183.5t-202 -128t-246.5 -49q-103 0 -184.5 31t-135 83t-88.5 124.5t-50 151t-15 166.5q0 113 24 227z" />
<glyph unicode="&#xd3;" horiz-adv-x="1347" d="M1055 1535q-10 -9 -24 -9q-17 0 -38 10.5t-33 21.5q-11 9 -21 32t-10 42q0 6 1 11q2 9 7 14l275 312q19 19 48 19q46 0 82 -32q14 -11 24 -34t10 -48q0 -10 -2 -20q-3 -19 -17 -33zM1207 754q21 99 21 186q0 66 -12.5 119t-40.5 97t-77.5 68.5t-117.5 24.5 q-92 0 -168.5 -44.5t-128.5 -119t-86 -157t-54 -174.5q-24 -115 -24 -214q0 -55 7.5 -102t25 -89t45 -71.5t69 -47t94.5 -17.5q74 0 139.5 33t113.5 86t87.5 125t65 145.5t41.5 151.5zM260 754q15 71 40.5 142t63.5 144t85.5 138t110 122.5t133 99t157.5 65.5t181 24 q104 0 187.5 -29.5t137 -79.5t89.5 -119.5t51 -144t15 -158.5q0 -101 -22 -204q-23 -107 -65 -212.5t-111.5 -210t-155 -183.5t-202 -128t-246.5 -49q-103 0 -184.5 31t-135 83t-88.5 124.5t-50 151t-15 166.5q0 113 24 227z" />
<glyph unicode="&#xd4;" horiz-adv-x="1347" d="M1453 1562h-271l-98 161l-157 -158h-277l356 341h236zM1207 754q21 99 21 186q0 66 -12.5 119t-40.5 97t-77.5 68.5t-117.5 24.5q-92 0 -168.5 -44.5t-128.5 -119t-86 -157t-54 -174.5q-24 -115 -24 -214q0 -55 7.5 -102t25 -89t45 -71.5t69 -47t94.5 -17.5 q74 0 139.5 33t113.5 86t87.5 125t65 145.5t41.5 151.5zM260 754q15 71 40.5 142t63.5 144t85.5 138t110 122.5t133 99t157.5 65.5t181 24q104 0 187.5 -29.5t137 -79.5t89.5 -119.5t51 -144t15 -158.5q0 -101 -22 -204q-23 -107 -65 -212.5t-111.5 -210t-155 -183.5 t-202 -128t-246.5 -49q-103 0 -184.5 31t-135 83t-88.5 124.5t-50 151t-15 166.5q0 113 24 227z" />
<glyph unicode="&#xd5;" horiz-adv-x="1347" d="M797 1844q8 5 33 24t40.5 29t39.5 23.5t47 20t45 6.5q27 0 52.5 -15.5t45.5 -37.5l42 -46q21 -22 47.5 -37.5t55.5 -15.5q32 0 75 21.5t62 36.5l64 49l-55 -260q-6 -4 -36 -25.5t-49 -33t-51.5 -23.5t-61.5 -12q-39 0 -75.5 24t-60.5 52t-54 52t-57 24t-55 -10 t-45.5 -20.5t-50.5 -33.5t-49 -33zM1207 754q21 99 21 186q0 66 -12.5 119t-40.5 97t-77.5 68.5t-117.5 24.5q-92 0 -168.5 -44.5t-128.5 -119t-86 -157t-54 -174.5q-24 -115 -24 -214q0 -55 7.5 -102t25 -89t45 -71.5t69 -47t94.5 -17.5q74 0 139.5 33t113.5 86t87.5 125 t65 145.5t41.5 151.5zM260 754q15 71 40.5 142t63.5 144t85.5 138t110 122.5t133 99t157.5 65.5t181 24q104 0 187.5 -29.5t137 -79.5t89.5 -119.5t51 -144t15 -158.5q0 -101 -22 -204q-23 -107 -65 -212.5t-111.5 -210t-155 -183.5t-202 -128t-246.5 -49q-103 0 -184.5 31 t-135 83t-88.5 124.5t-50 151t-15 166.5q0 113 24 227z" />
<glyph unicode="&#xd6;" horiz-adv-x="1347" d="M1156 1732q14 68 72.5 116t126.5 48q59 0 96 -36.5t37 -93.5q0 -17 -4 -34q-14 -68 -72.5 -116t-126.5 -48q-58 0 -95.5 37t-37.5 93q0 17 4 34zM685 1732q14 68 72.5 116t126.5 48q59 0 96 -36.5t37 -93.5q0 -17 -4 -34q-14 -68 -72.5 -116t-126.5 -48q-58 0 -95.5 37 t-37.5 93q0 17 4 34zM1207 754q21 99 21 186q0 66 -12.5 119t-40.5 97t-77.5 68.5t-117.5 24.5q-92 0 -168.5 -44.5t-128.5 -119t-86 -157t-54 -174.5q-24 -115 -24 -214q0 -55 7.5 -102t25 -89t45 -71.5t69 -47t94.5 -17.5q74 0 139.5 33t113.5 86t87.5 125t65 145.5 t41.5 151.5zM260 754q15 71 40.5 142t63.5 144t85.5 138t110 122.5t133 99t157.5 65.5t181 24q104 0 187.5 -29.5t137 -79.5t89.5 -119.5t51 -144t15 -158.5q0 -101 -22 -204q-23 -107 -65 -212.5t-111.5 -210t-155 -183.5t-202 -128t-246.5 -49q-103 0 -184.5 31t-135 83 t-88.5 124.5t-50 151t-15 166.5q0 113 24 227z" />
<glyph unicode="&#xd7;" horiz-adv-x="833" d="M149.682 573.031l186.594 189.564l-170.344 257.455l168.354 171.035l170.343 -257.455l201.324 204.529l135.274 -204.699l-202.025 -205.242l161.757 -244.796l-167.652 -170.322l-161.757 244.795l-186.594 -189.563z" />
<glyph unicode="&#xd8;" horiz-adv-x="2478" d="M544 -6l-18 -23h-284l102 164q-55 70 -81.5 176.5t-26.5 223.5q0 103 19 192q24 115 67.5 221.5t112 206t154.5 173t201.5 117.5t246.5 44q100 0 156 -23l13 27h272l-91 -145q123 -140 123 -383q0 -111 -26 -238q-19 -86 -56.5 -180.5t-105 -199t-151.5 -186.5t-205 -136 t-257 -54q-86 0 -165 23zM684 223q9 -1 20.5 -4t23 -4.5t30.5 -1.5q76 0 144 35.5t115.5 90t86.5 126t62 135.5t36 127q25 120 25 206q0 68 -15 134zM531 426l517 815q-4 0 -22 4t-40 4q-79 0 -147.5 -32.5t-116 -83.5t-86 -122t-61.5 -139.5t-39 -144.5q-16 -74 -16 -182 q0 -75 11 -119z" />
<glyph unicode="&#xd9;" horiz-adv-x="1298" d="M934 1503l-182 286q-4 8 -4 19q0 7 1 15q6 27 29 57.5t46 43.5q52 32 96 32q30 0 40 -19l144 -312q1 -3 1 -6.5t-1 -7.5q-4 -19 -26.5 -46.5t-39.5 -38.5q-47 -32 -84 -32q-16 0 -20 9zM1239 1456h274l-161 -762q-73 -341 -258 -532t-443 -191q-204 0 -312.5 122 t-108.5 347q0 116 29 254l161 762h274l-161 -762q-28 -130 -28 -225q0 -256 197 -256q273 0 376 481z" />
<glyph unicode="&#xda;" horiz-adv-x="1298" d="M1004 1499q-10 -9 -24 -9q-17 0 -38 10.5t-33 21.5q-11 9 -21 32t-10 42q0 6 1 11q2 9 7 14l275 312q19 19 48 19q46 0 82 -32q14 -11 24 -34t10 -48q0 -10 -2 -20q-3 -19 -17 -33zM1239 1456h274l-161 -762q-73 -341 -258 -532t-443 -191q-204 0 -312.5 122t-108.5 347 q0 116 29 254l161 762h274l-161 -762q-28 -130 -28 -225q0 -256 197 -256q273 0 376 481z" />
<glyph unicode="&#xdb;" horiz-adv-x="1298" d="M1392 1566h-271l-98 161l-157 -158h-277l356 341h236zM1239 1456h274l-161 -762q-73 -341 -258 -532t-443 -191q-204 0 -312.5 122t-108.5 347q0 116 29 254l161 762h274l-161 -762q-28 -130 -28 -225q0 -256 197 -256q273 0 376 481z" />
<glyph unicode="&#xdc;" horiz-adv-x="1298" d="M1094 1695q14 68 72.5 116t126.5 48q59 0 96 -36.5t37 -93.5q0 -17 -4 -34q-14 -68 -72.5 -116t-126.5 -48q-58 0 -95.5 37t-37.5 93q0 17 4 34zM623 1695q14 68 72.5 116t126.5 48q59 0 96 -36.5t37 -93.5q0 -17 -4 -34q-14 -68 -72.5 -116t-126.5 -48q-58 0 -95.5 37 t-37.5 93q0 17 4 34zM1239 1456h274l-161 -762q-73 -341 -258 -532t-443 -191q-204 0 -312.5 122t-108.5 347q0 116 29 254l161 762h274l-161 -762q-28 -130 -28 -225q0 -256 197 -256q273 0 376 481z" />
<glyph unicode="&#xdd;" horiz-adv-x="1179" d="M1008 1499q-10 -9 -24 -9q-17 0 -38 10.5t-33 21.5q-11 9 -21 32t-10 42q0 6 1 11q2 9 7 14l275 312q19 19 48 19q46 0 82 -32q14 -11 24 -34t10 -48q0 -10 -2 -20q-3 -19 -17 -33zM375 1456h285l196 -537l423 537h279l-611 -751l-150 -705h-269l150 705z" />
<glyph unicode="&#xde;" horiz-adv-x="1384" d="M515 526q79 0 147 10t134 33.5t110 69.5t58 111q5 21 5 40q0 171 -362 171zM444 1456h268l-54 -257q98 0 180.5 -9.5t159 -34t129.5 -63t84.5 -99t31.5 -139.5q0 -49 -12 -104q-20 -94 -61 -168t-99 -123.5t-125.5 -84t-150 -53t-161.5 -26.5t-170 -8l-61 -287h-268z" />
<glyph unicode="&#xdf;" horiz-adv-x="1261" d="M427 1260q196 268 543 268q176 0 274 -93.5t98 -249.5q0 -54 -12 -112q-28 -130 -96 -206.5t-138 -99.5q22 -5 48.5 -27.5t51 -58t40.5 -88.5t16 -110q0 -42 -9 -84q-30 -141 -119.5 -238.5t-219 -143.5t-292.5 -46q-153 0 -192 52l141 203q9 -10 15.5 -15.5t21.5 -10.5 t36 -5q140 0 237.5 49t120.5 155q4 20 4 40q0 90 -84 150t-233 60h-35q3 0 4 0.5t2 2.5l2 7q2 4 6 13.5t10 21.5l46 150q54 0 106.5 10.5t107 34t94.5 71t54 113.5q9 44 9 78q0 143 -165 143q-191 0 -299 -154q-38 -55 -101 -306l-125 -510q-63 -258 -100 -324h-233 q33 52 80 237.5t88 382.5t95.5 387t101.5 253z" />
<glyph unicode="&#xe0;" horiz-adv-x="1036" d="M797 1155l-182 286q-4 8 -4 19q0 7 1 15q6 27 29 57.5t46 43.5q52 32 96 32q30 0 40 -19l144 -312q1 -3 1 -6.5t-1 -7.5q-4 -19 -26.5 -46.5t-39.5 -38.5q-47 -32 -84 -32q-16 0 -20 9zM646 524q-88 0 -156 -50.5t-82 -117.5q-3 -15 -3 -29q0 -58 46.5 -97t124.5 -39 q88 0 150 48.5t77 116.5q3 16 3 32q0 58 -42 97t-118 39zM608 741q99 0 163 -50.5t71 -114.5l17 82q8 39 8 71q0 41 -13 72t-33 48.5t-48.5 29t-54.5 15t-55 3.5q-46 0 -92.5 -9.5t-70 -18t-65.5 -25.5l-68 164q52 36 155.5 65t183.5 29q70 0 130 -11.5t113.5 -38 t91.5 -66.5t60 -100.5t22 -135.5q0 -65 -16 -141l-64 -304l-65 -305h-257l29 136q-35 -64 -119 -114.5t-183 -50.5q-130 0 -211 82.5t-81 214.5q0 44 10 90q35 164 163.5 273.5t278.5 109.5z" />
<glyph unicode="&#xe1;" horiz-adv-x="1036" d="M797 1150q-10 -9 -24 -9q-17 0 -38 10.5t-33 21.5q-11 9 -21 32t-10 42q0 6 1 11q2 9 7 14l275 312q19 19 48 19q46 0 82 -32q14 -11 24 -34t10 -48q0 -10 -2 -20q-3 -19 -17 -33zM646 524q-88 0 -156 -50.5t-82 -117.5q-3 -15 -3 -29q0 -58 46.5 -97t124.5 -39 q88 0 150 48.5t77 116.5q3 16 3 32q0 58 -42 97t-118 39zM608 741q99 0 163 -50.5t71 -114.5l17 82q8 39 8 71q0 41 -13 72t-33 48.5t-48.5 29t-54.5 15t-55 3.5q-46 0 -92.5 -9.5t-70 -18t-65.5 -25.5l-68 164q52 36 155.5 65t183.5 29q70 0 130 -11.5t113.5 -38 t91.5 -66.5t60 -100.5t22 -135.5q0 -65 -16 -141l-64 -304l-65 -305h-257l29 136q-35 -64 -119 -114.5t-183 -50.5q-130 0 -211 82.5t-81 214.5q0 44 10 90q35 164 163.5 273.5t278.5 109.5z" />
<glyph unicode="&#xe2;" horiz-adv-x="1036" d="M1172 1138h-271l-98 161l-157 -158h-277l356 341h236zM646 524q-88 0 -156 -50.5t-82 -117.5q-3 -15 -3 -29q0 -58 46.5 -97t124.5 -39q88 0 150 48.5t77 116.5q3 16 3 32q0 58 -42 97t-118 39zM608 741q99 0 163 -50.5t71 -114.5l17 82q8 39 8 71q0 41 -13 72t-33 48.5 t-48.5 29t-54.5 15t-55 3.5q-46 0 -92.5 -9.5t-70 -18t-65.5 -25.5l-68 164q52 36 155.5 65t183.5 29q70 0 130 -11.5t113.5 -38t91.5 -66.5t60 -100.5t22 -135.5q0 -65 -16 -141l-64 -304l-65 -305h-257l29 136q-35 -64 -119 -114.5t-183 -50.5q-130 0 -211 82.5t-81 214.5 q0 44 10 90q35 164 163.5 273.5t278.5 109.5z" />
<glyph unicode="&#xe3;" horiz-adv-x="1036" d="M558 1439q8 5 33 24t40.5 29t39.5 23.5t47 20t45 6.5q27 0 52.5 -15.5t45.5 -37.5l42 -46q21 -22 47.5 -37.5t55.5 -15.5q32 0 75 21.5t62 36.5l64 49l-55 -260q-6 -4 -36 -25.5t-49 -33t-51.5 -23.5t-61.5 -12q-39 0 -75.5 24t-60.5 52t-54 52t-57 24t-55 -10 t-45.5 -20.5t-50.5 -33.5t-49 -33zM646 524q-88 0 -156 -50.5t-82 -117.5q-3 -15 -3 -29q0 -58 46.5 -97t124.5 -39q88 0 150 48.5t77 116.5q3 16 3 32q0 58 -42 97t-118 39zM608 741q99 0 163 -50.5t71 -114.5l17 82q8 39 8 71q0 41 -13 72t-33 48.5t-48.5 29t-54.5 15 t-55 3.5q-46 0 -92.5 -9.5t-70 -18t-65.5 -25.5l-68 164q52 36 155.5 65t183.5 29q70 0 130 -11.5t113.5 -38t91.5 -66.5t60 -100.5t22 -135.5q0 -65 -16 -141l-64 -304l-65 -305h-257l29 136q-35 -64 -119 -114.5t-183 -50.5q-130 0 -211 82.5t-81 214.5q0 44 10 90 q35 164 163.5 273.5t278.5 109.5z" />
<glyph unicode="&#xe4;" horiz-adv-x="1036" d="M918 1335q14 68 72.5 116t126.5 48q59 0 96 -36.5t37 -93.5q0 -17 -4 -34q-14 -68 -72.5 -116t-126.5 -48q-58 0 -95.5 37t-37.5 93q0 17 4 34zM447 1335q14 68 72.5 116t126.5 48q59 0 96 -36.5t37 -93.5q0 -17 -4 -34q-14 -68 -72.5 -116t-126.5 -48q-58 0 -95.5 37 t-37.5 93q0 17 4 34zM646 524q-88 0 -156 -50.5t-82 -117.5q-3 -15 -3 -29q0 -58 46.5 -97t124.5 -39q88 0 150 48.5t77 116.5q3 16 3 32q0 58 -42 97t-118 39zM608 741q99 0 163 -50.5t71 -114.5l17 82q8 39 8 71q0 41 -13 72t-33 48.5t-48.5 29t-54.5 15t-55 3.5 q-46 0 -92.5 -9.5t-70 -18t-65.5 -25.5l-68 164q52 36 155.5 65t183.5 29q70 0 130 -11.5t113.5 -38t91.5 -66.5t60 -100.5t22 -135.5q0 -65 -16 -141l-64 -304l-65 -305h-257l29 136q-35 -64 -119 -114.5t-183 -50.5q-130 0 -211 82.5t-81 214.5q0 44 10 90 q35 164 163.5 273.5t278.5 109.5z" />
<glyph unicode="&#xe5;" horiz-adv-x="1036" d="M694 1426q-3 -16 -3 -32q0 -52 32.5 -85t84.5 -33q61 0 111.5 43.5t63.5 106.5q4 17 4 34q0 50 -32 83t-84 33q-61 0 -112 -44t-65 -106zM521 1426q28 130 140.5 221t244.5 91q114 0 185.5 -70t71.5 -177q0 -32 -7 -65q-27 -130 -139 -221t-244 -91q-114 0 -186.5 70.5 t-72.5 177.5q0 32 7 64zM646 524q-88 0 -156 -50.5t-82 -117.5q-3 -15 -3 -29q0 -58 46.5 -97t124.5 -39q88 0 150 48.5t77 116.5q3 16 3 32q0 58 -42 97t-118 39zM608 741q99 0 163 -50.5t71 -114.5l17 82q8 39 8 71q0 41 -13 72t-33 48.5t-48.5 29t-54.5 15t-55 3.5 q-46 0 -92.5 -9.5t-70 -18t-65.5 -25.5l-68 164q52 36 155.5 65t183.5 29q70 0 130 -11.5t113.5 -38t91.5 -66.5t60 -100.5t22 -135.5q0 -65 -16 -141l-64 -304l-65 -305h-257l29 136q-35 -64 -119 -114.5t-183 -50.5q-130 0 -211 82.5t-81 214.5q0 44 10 90 q35 164 163.5 273.5t278.5 109.5z" />
<glyph unicode="&#xe6;" horiz-adv-x="1764" d="M646 524q-88 0 -156 -50.5t-82 -117.5q-3 -15 -3 -29q0 -58 46.5 -97t124.5 -39q88 0 150 48.5t77 116.5q3 16 3 32q0 58 -42 97t-118 39zM1251 201q99 0 168 66l207 -98q-81 -94 -199.5 -146t-224.5 -52q-122 0 -217 64l-7 -35h-257l29 136q-35 -64 -119 -114.5 t-183 -50.5q-130 0 -211 82.5t-81 214.5q0 44 10 90q35 164 163.5 273.5t278.5 109.5q98 0 162.5 -50t71.5 -114q0 1 6.5 33t10.5 48q8 39 8 71q0 41 -13 72t-33 48.5t-48.5 29t-54.5 15t-55 3.5q-46 0 -92.5 -9.5t-70 -18t-65.5 -25.5l-68 164q52 36 155.5 65t183.5 29 q264 0 364 -153q168 149 362 149q164 0 259.5 -111t95.5 -293q0 -75 -17 -157l-14 -68h-664q-9 -47 -9 -86q0 -44 11.5 -77.5t28.5 -53t40.5 -31.5t44.5 -16t43 -4zM1131 651h413q3 20 3 38q0 78 -42 128.5t-122 50.5q-89 0 -157.5 -64t-94.5 -153z" />
<glyph unicode="&#xe7;" horiz-adv-x="847" d="M242 -342l34 17q19 9 39.5 21t37.5 23.5t29 24.5t15 25q6 28 6 42q0 35 -25 69l181 90q69 -76 69 -164q0 -22 -5 -43q-5 -23 -19 -45.5t-33 -41t-43.5 -37t-49.5 -33.5l-53 -28q-27 -15 -51 -25.5t-46 -21.5zM927 756q-41 114 -156 114q-99 0 -189 -95.5t-121 -242.5 q-11 -50 -11 -95q0 -107 54.5 -170.5t144.5 -63.5q38 0 67.5 10t47.5 26t35 36t30 40l190 -111q-80 -97 -190.5 -165t-228.5 -68q-199 0 -309 108t-110 296q0 74 18 157q54 252 228.5 410t392.5 158q117 0 212.5 -63.5t130.5 -168.5z" />
<glyph unicode="&#xe8;" horiz-adv-x="964" d="M784 1155l-182 286q-4 8 -4 19q0 7 1 15q6 27 29 57.5t46 43.5q52 32 96 32q30 0 40 -19l144 -312q1 -3 1 -6.5t-1 -7.5q-4 -19 -26.5 -46.5t-39.5 -38.5q-47 -32 -84 -32q-16 0 -20 9zM501 651h413q3 20 3 38q0 78 -42 128.5t-122 50.5q-89 0 -157.5 -64t-94.5 -153z M621 201q99 0 168 66l207 -98q-81 -94 -199.5 -146t-224.5 -52q-171 0 -278 118t-107 307q0 69 15 141q34 158 126 287.5t217 201.5t257 72q164 0 259.5 -111t95.5 -293q0 -75 -17 -157l-14 -68h-664q-9 -47 -9 -86q0 -44 11.5 -77.5t28.5 -53t40.5 -31.5t44.5 -16t43 -4z " />
<glyph unicode="&#xe9;" horiz-adv-x="964" d="M836 1152q-10 -9 -24 -9q-17 0 -38 10.5t-33 21.5q-11 9 -21 32t-10 42q0 6 1 11q2 9 7 14l275 312q19 19 48 19q46 0 82 -32q14 -11 24 -34t10 -48q0 -10 -2 -20q-3 -19 -17 -33zM501 651h413q3 20 3 38q0 78 -42 128.5t-122 50.5q-89 0 -157.5 -64t-94.5 -153zM621 201 q99 0 168 66l207 -98q-81 -94 -199.5 -146t-224.5 -52q-171 0 -278 118t-107 307q0 69 15 141q34 158 126 287.5t217 201.5t257 72q164 0 259.5 -111t95.5 -293q0 -75 -17 -157l-14 -68h-664q-9 -47 -9 -86q0 -44 11.5 -77.5t28.5 -53t40.5 -31.5t44.5 -16t43 -4z" />
<glyph unicode="&#xea;" horiz-adv-x="964" d="M1230 1152h-271l-98 161l-157 -158h-277l356 341h236zM501 651h413q3 20 3 38q0 78 -42 128.5t-122 50.5q-89 0 -157.5 -64t-94.5 -153zM621 201q99 0 168 66l207 -98q-81 -94 -199.5 -146t-224.5 -52q-171 0 -278 118t-107 307q0 69 15 141q34 158 126 287.5t217 201.5 t257 72q164 0 259.5 -111t95.5 -293q0 -75 -17 -157l-14 -68h-664q-9 -47 -9 -86q0 -44 11.5 -77.5t28.5 -53t40.5 -31.5t44.5 -16t43 -4z" />
<glyph unicode="&#xeb;" horiz-adv-x="964" d="M926 1312q14 68 72.5 116t126.5 48q59 0 96 -36.5t37 -93.5q0 -17 -4 -34q-14 -68 -72.5 -116t-126.5 -48q-58 0 -95.5 37t-37.5 93q0 17 4 34zM455 1312q14 68 72.5 116t126.5 48q59 0 96 -36.5t37 -93.5q0 -17 -4 -34q-14 -68 -72.5 -116t-126.5 -48q-58 0 -95.5 37 t-37.5 93q0 17 4 34zM501 651h413q3 20 3 38q0 78 -42 128.5t-122 50.5q-89 0 -157.5 -64t-94.5 -153zM621 201q99 0 168 66l207 -98q-81 -94 -199.5 -146t-224.5 -52q-171 0 -278 118t-107 307q0 69 15 141q34 158 126 287.5t217 201.5t257 72q164 0 259.5 -111t95.5 -293 q0 -75 -17 -157l-14 -68h-664q-9 -47 -9 -86q0 -44 11.5 -77.5t28.5 -53t40.5 -31.5t44.5 -16t43 -4z" />
<glyph unicode="&#xec;" horiz-adv-x="550" d="M367 1073h269l-228 -1073h-269zM471 1146l-182 286q-4 8 -4 19q0 7 1 15q6 27 29 57.5t46 43.5q52 32 96 32q30 0 40 -19l144 -312q1 -3 1 -6.5t-1 -7.5q-4 -19 -26.5 -46.5t-39.5 -38.5q-47 -32 -84 -32q-15 0 -20 9z" />
<glyph unicode="&#xed;" horiz-adv-x="544" d="M367 1073h269l-228 -1073h-269zM561 1144q-11 -9 -24 -9q-17 0 -38 10.5t-33 21.5q-11 9 -21 32t-10 42q0 6 1 11q2 9 7 14l275 312q19 19 48 19q46 0 82 -32q14 -11 24 -34t10 -48q0 -10 -2 -20q-3 -19 -17 -33z" />
<glyph unicode="&#xee;" horiz-adv-x="546" d="M920 1146h-271l-98 161l-157 -158h-277l356 341h236zM367 1073h269l-228 -1073h-269z" />
<glyph unicode="&#xef;" horiz-adv-x="548" d="M637 1323q14 68 72.5 116t126.5 48q59 0 96 -36.5t37 -93.5q0 -17 -4 -34q-14 -68 -72.5 -116t-126.5 -48q-58 0 -95.5 37t-37.5 93q0 17 4 34zM166 1323q14 68 72.5 116t126.5 48q59 0 96 -36.5t37 -93.5q0 -17 -4 -34q-14 -68 -72.5 -116t-126.5 -48q-58 0 -95.5 37 t-37.5 93q0 17 4 34zM367 1073h269l-228 -1073h-269z" />
<glyph unicode="&#xf0;" horiz-adv-x="1062" d="M429 467q-10 -50 -10 -94q0 -90 37.5 -141.5t83.5 -51.5q76 0 151.5 88t99.5 199q7 33 7 64q0 86 -50 139t-119 53q-59 0 -119.5 -80t-80.5 -176zM1006 1229q41 -64 73 -172t32 -213q0 -39 -5 -74q-5 -68 -23 -160q-12 -54 -25 -104q-51 -240 -212.5 -397.5 t-347.5 -157.5q-91 0 -158.5 27t-107.5 76t-59.5 112t-19.5 140t19 165q44 207 191 344t322 137q70 0 123.5 -46t82.5 -107q3 15 3 37q0 66 -24 151t-56 123l-106 -82l-120 154l100 73q-14 13 -24 19t-37 12t-69 6h-1q-59 0 -109 -10l22 193q44 16 151 16h5q85 0 153 -28 t105 -62l142 111l124 -185z" />
<glyph unicode="&#xf1;" horiz-adv-x="1089" d="M561 1453q8 5 33 24t40.5 29t39.5 23.5t47 20t45 6.5q27 0 52.5 -15.5t45.5 -37.5l42 -46q21 -22 47.5 -37.5t55.5 -15.5q32 0 75 21.5t62 36.5l64 49l-55 -260q-6 -4 -36 -25.5t-49 -33t-51.5 -23.5t-61.5 -12q-39 0 -75.5 24t-60.5 52t-54 52t-57 24t-55 -10 t-45.5 -20.5t-50.5 -33.5t-49 -33zM377 0h-258l228 1074h258l-34 -162q62 82 161 136t202 54q46 0 87.5 -20t75.5 -56.5t54 -96t20 -131.5q0 -61 -15 -130l-142 -668h-258l114 537q23 107 23 177q0 87 -34 120t-99 33q-35 0 -64 -8t-60 -30t-56.5 -58t-48.5 -95.5 t-40 -139.5z" />
<glyph unicode="&#xf2;" horiz-adv-x="1150" d="M769 1159l-182 286q-4 8 -4 19q0 7 1 15q6 27 29 57.5t46 43.5q52 32 96 32q30 0 40 -19l144 -312q1 -3 1 -6.5t-1 -7.5q-4 -19 -26.5 -46.5t-39.5 -38.5q-47 -32 -84 -32q-16 0 -20 9zM458 537q-16 -78 -16 -138q0 -193 168 -193q222 0 292 331q17 78 17 138 q0 191 -169 191q-221 0 -292 -329zM206 537q56 260 212 411.5t381 151.5q182 0 277 -100.5t95 -280.5q0 -84 -21 -182q-56 -261 -211 -413.5t-380 -152.5q-183 0 -278.5 100.5t-95.5 282.5q0 84 21 183z" />
<glyph unicode="&#xf3;" horiz-adv-x="1153" d="M832 1159q-10 -9 -24 -9q-17 0 -38 10.5t-33 21.5q-11 9 -21 32t-10 42q0 6 1 11q2 9 7 14l275 312q19 19 48 19q46 0 82 -32q14 -11 24 -34t10 -48q0 -10 -2 -20q-3 -19 -17 -33zM458 537q-16 -78 -16 -138q0 -193 168 -193q222 0 292 331q17 78 17 138q0 191 -169 191 q-221 0 -292 -329zM206 537q56 260 212 411.5t381 151.5q182 0 277 -100.5t95 -280.5q0 -84 -21 -182q-56 -261 -211 -413.5t-380 -152.5q-183 0 -278.5 100.5t-95.5 282.5q0 84 21 183z" />
<glyph unicode="&#xf4;" horiz-adv-x="1150" d="M1207 1142h-271l-98 161l-157 -158h-277l356 341h236zM458 537q-16 -78 -16 -138q0 -193 168 -193q222 0 292 331q17 78 17 138q0 191 -169 191q-221 0 -292 -329zM206 537q56 260 212 411.5t381 151.5q182 0 277 -100.5t95 -280.5q0 -84 -21 -182q-56 -261 -211 -413.5 t-380 -152.5q-183 0 -278.5 100.5t-95.5 282.5q0 84 21 183z" />
<glyph unicode="&#xf5;" horiz-adv-x="1150" d="M555 1445q8 5 33 24t40.5 29t39.5 23.5t47 20t45 6.5q27 0 52.5 -15.5t45.5 -37.5l42 -46q21 -22 47.5 -37.5t55.5 -15.5q32 0 75 21.5t62 36.5l64 49l-55 -260q-6 -4 -36 -25.5t-49 -33t-51.5 -23.5t-61.5 -12q-39 0 -75.5 24t-60.5 52t-54 52t-57 24t-55 -10 t-45.5 -20.5t-50.5 -33.5t-49 -33zM458 537q-16 -78 -16 -138q0 -193 168 -193q222 0 292 331q17 78 17 138q0 191 -169 191q-221 0 -292 -329zM206 537q56 260 212 411.5t381 151.5q182 0 277 -100.5t95 -280.5q0 -84 -21 -182q-56 -261 -211 -413.5t-380 -152.5 q-183 0 -278.5 100.5t-95.5 282.5q0 84 21 183z" />
<glyph unicode="&#xf6;" horiz-adv-x="1150" d="M917 1323q14 68 72.5 116t126.5 48q59 0 96 -36.5t37 -93.5q0 -17 -4 -34q-14 -68 -72.5 -116t-126.5 -48q-58 0 -95.5 37t-37.5 93q0 17 4 34zM446 1323q14 68 72.5 116t126.5 48q59 0 96 -36.5t37 -93.5q0 -17 -4 -34q-14 -68 -72.5 -116t-126.5 -48q-58 0 -95.5 37 t-37.5 93q0 17 4 34zM458 537q-16 -78 -16 -138q0 -193 168 -193q222 0 292 331q17 78 17 138q0 191 -169 191q-221 0 -292 -329zM206 537q56 260 212 411.5t381 151.5q182 0 277 -100.5t95 -280.5q0 -84 -21 -182q-56 -261 -211 -413.5t-380 -152.5q-183 0 -278.5 100.5 t-95.5 282.5q0 84 21 183z" />
<glyph unicode="&#xf7;" horiz-adv-x="1003" d="M280 764h772l-51 -240h-772zM562 1009q14 68 72.5 116t126.5 48q59 0 96 -36.5t37 -93.5q0 -17 -4 -34q-14 -68 -72.5 -116t-126.5 -48q-58 0 -95.5 37t-37.5 93q0 17 4 34zM407 281q14 68 72.5 116t126.5 48q59 0 96 -36.5t37 -93.5q0 -17 -4 -34q-14 -68 -72.5 -116 t-126.5 -48q-58 0 -95.5 37t-37.5 93q0 17 4 34z" />
<glyph unicode="&#xf8;" horiz-adv-x="1044" d="M899 635l-352 -414q20 -20 61 -20q88 0 171 102.5t110 228.5q11 53 11 83q0 11 -1 20zM814 850q-26 20 -51 20q-102 0 -186 -104t-112 -234q-8 -36 -8 -70q0 -13 2 -20zM47 -29l181 207q-38 77 -38 204q0 76 15 150q54 251 218.5 409.5t388.5 158.5q42 0 96 -14.5 t81 -34.5l43 51h263l-170 -203q41 -86 41 -210q0 -78 -17 -157q-52 -242 -218.5 -401.5t-367.5 -159.5q-50 0 -104.5 12.5t-83.5 34.5l-41 -47h-287z" />
<glyph unicode="&#xf9;" horiz-adv-x="991" d="M752 1169l-182 286q-4 8 -4 19q0 7 1 15q6 27 29 57.5t46 43.5q52 32 96 32q30 0 40 -19l144 -312q1 -3 1 -6.5t-1 -7.5q-4 -19 -26.5 -46.5t-39.5 -38.5q-47 -32 -84 -32q-16 0 -20 9zM1003 0h-258l34 161q-62 -81 -160 -135.5t-197 -54.5q-110 0 -170 79.5t-60 235.5 q0 109 30 249l114 538h258l-114 -537q-19 -89 -19 -155q0 -51 11 -87t30.5 -54t41 -26t46.5 -8q34 0 68.5 14t73 47.5t72 103t54.5 166.5l114 536h259z" />
<glyph unicode="&#xfa;" horiz-adv-x="1024" d="M808 1150q-10 -9 -24 -9q-17 0 -38 10.5t-33 21.5q-11 9 -21 32t-10 42q0 6 1 11q2 9 7 14l275 312q19 19 48 19q46 0 82 -32q14 -11 24 -34t10 -48q0 -10 -2 -20q-3 -19 -17 -33zM1003 0h-258l34 161q-62 -81 -160 -135.5t-197 -54.5q-110 0 -170 79.5t-60 235.5 q0 109 30 249l114 538h258l-114 -537q-19 -89 -19 -155q0 -51 11 -87t30.5 -54t41 -26t46.5 -8q34 0 68.5 14t73 47.5t72 103t54.5 166.5l114 536h259z" />
<glyph unicode="&#xfb;" horiz-adv-x="1024" d="M1211 1175h-271l-98 161l-157 -158h-277l356 341h236zM1003 0h-258l34 161q-62 -81 -160 -135.5t-197 -54.5q-110 0 -170 79.5t-60 235.5q0 109 30 249l114 538h258l-114 -537q-19 -89 -19 -155q0 -51 11 -87t30.5 -54t41 -26t46.5 -8q34 0 68.5 14t73 47.5t72 103 t54.5 166.5l114 536h259z" />
<glyph unicode="&#xfc;" horiz-adv-x="1024" d="M915 1327q14 68 72.5 116t126.5 48q59 0 96 -36.5t37 -93.5q0 -17 -4 -34q-14 -68 -72.5 -116t-126.5 -48q-58 0 -95.5 37t-37.5 93q0 17 4 34zM444 1327q14 68 72.5 116t126.5 48q59 0 96 -36.5t37 -93.5q0 -17 -4 -34q-14 -68 -72.5 -116t-126.5 -48q-58 0 -95.5 37 t-37.5 93q0 17 4 34zM1003 0h-258l34 161q-62 -81 -160 -135.5t-197 -54.5q-110 0 -170 79.5t-60 235.5q0 109 30 249l114 538h258l-114 -537q-19 -89 -19 -155q0 -51 11 -87t30.5 -54t41 -26t46.5 -8q34 0 68.5 14t73 47.5t72 103t54.5 166.5l114 536h259z" />
<glyph unicode="&#xfd;" horiz-adv-x="983" d="M845 1134q-10 -9 -24 -9q-17 0 -38 10.5t-33 21.5q-11 9 -21 32t-10 42q0 6 1 11q2 9 7 14l275 312q19 19 48 19q46 0 82 -32q14 -11 24 -34t10 -48q0 -10 -2 -20q-3 -19 -17 -33zM997 -29q-22 -106 -110.5 -208t-207 -165t-223.5 -63q-149 0 -243.5 69.5t-120.5 171.5 l228 112q7 -55 53.5 -88t125.5 -33q84 0 150 47t83 127l47 220q-62 -81 -160 -135.5t-197 -54.5q-110 0 -170 79.5t-60 235.5q0 109 30 249l114 538h258l-114 -537q-19 -89 -19 -155q0 -51 11 -87t30.5 -54t41 -26t46.5 -8q34 0 68.5 14t73 47.5t72 103t54.5 166.5l114 536 h259l-222 -1044z" />
<glyph unicode="&#xfe;" horiz-adv-x="1093" d="M377 0h-258l309 1454h258l-63 -295q40 61 115 116.5t141 55.5q78 0 138.5 -31.5t98 -87.5t56.5 -129t19 -159q0 -90 -20 -185q-21 -97 -53 -184t-82.5 -168.5t-112.5 -140t-146.5 -94t-181.5 -35.5q-36 0 -67 17t-50 42.5t-30.5 46t-15.5 35.5zM915 750q12 56 12 110 q0 103 -38 172.5t-88 69.5q-77 0 -160 -106.5t-112 -244.5q-21 -95 -21 -175q0 -108 34.5 -169t88.5 -61q77 0 161.5 111t122.5 293z" />
<glyph unicode="&#xff;" horiz-adv-x="983" d="M899 1327q14 68 72.5 116t126.5 48q59 0 96 -36.5t37 -93.5q0 -17 -4 -34q-14 -68 -72.5 -116t-126.5 -48q-58 0 -95.5 37t-37.5 93q0 17 4 34zM428 1327q14 68 72.5 116t126.5 48q59 0 96 -36.5t37 -93.5q0 -17 -4 -34q-14 -68 -72.5 -116t-126.5 -48q-58 0 -95.5 37 t-37.5 93q0 17 4 34zM997 -29q-22 -106 -110.5 -208t-207 -165t-223.5 -63q-149 0 -243.5 69.5t-120.5 171.5l228 112q7 -55 53.5 -88t125.5 -33q84 0 150 47t83 127l47 220q-62 -81 -160 -135.5t-197 -54.5q-110 0 -170 79.5t-60 235.5q0 109 30 249l114 538h258l-114 -537 q-19 -89 -19 -155q0 -51 11 -87t30.5 -54t41 -26t46.5 -8q34 0 68.5 14t73 47.5t72 103t54.5 166.5l114 536h259l-222 -1044z" />
<glyph unicode="&#x152;" horiz-adv-x="2620" d="M1833 1456h982l-50 -239h-714l-75 -351h651l-51 -239h-651l-82 -387h714l-51 -240h-982zM1207 754q21 99 21 186q0 66 -12.5 119t-40.5 97t-77.5 68.5t-117.5 24.5q-92 0 -168.5 -44.5t-128.5 -119t-86 -157t-54 -174.5q-24 -115 -24 -214q0 -55 7.5 -102t25 -89 t45 -71.5t69 -47t94.5 -17.5q74 0 139.5 33t113.5 86t87.5 125t65 145.5t41.5 151.5zM260 754q15 71 40.5 142t63.5 144t85.5 138t110 122.5t133 99t157.5 65.5t181 24q104 0 187.5 -29.5t137 -79.5t89.5 -119.5t51 -144t15 -158.5q0 -101 -22 -204q-23 -107 -65 -212.5 t-111.5 -210t-155 -183.5t-202 -128t-246.5 -49q-103 0 -184.5 31t-135 83t-88.5 124.5t-50 151t-15 166.5q0 113 24 227z" />
<glyph unicode="&#x153;" horiz-adv-x="2198" d="M1606 651h413q3 20 3 38q0 78 -42 128.5t-122 50.5q-89 0 -157.5 -64t-94.5 -153zM1726 201q99 0 168 66l207 -98q-81 -94 -199.5 -146t-224.5 -52q-171 0 -278 118t-107 307q0 69 15 141q34 158 126 287.5t217 201.5t257 72q164 0 259.5 -111t95.5 -293q0 -75 -17 -157 l-14 -68h-664q-9 -47 -9 -86q0 -44 11.5 -77.5t28.5 -53t40.5 -31.5t44.5 -16t43 -4zM458 537q-16 -78 -16 -138q0 -193 168 -193q222 0 292 331q17 78 17 138q0 191 -169 191q-221 0 -292 -329zM206 537q56 260 212 411.5t381 151.5q182 0 277 -100.5t95 -280.5 q0 -84 -21 -182q-56 -261 -211 -413.5t-380 -152.5q-183 0 -278.5 100.5t-95.5 282.5q0 84 21 183z" />
<glyph unicode="&#x178;" horiz-adv-x="1314" d="M1106 1775q14 68 72.5 116t126.5 48q59 0 96 -36.5t37 -93.5q0 -17 -4 -34q-14 -68 -72.5 -116t-126.5 -48q-58 0 -95.5 37t-37.5 93q0 17 4 34zM635 1775q14 68 72.5 116t126.5 48q59 0 96 -36.5t37 -93.5q0 -17 -4 -34q-14 -68 -72.5 -116t-126.5 -48q-58 0 -95.5 37 t-37.5 93q0 17 4 34zM375 1456h285l196 -537l423 537h279l-611 -751l-150 -705h-269l150 705z" />
<glyph unicode="&#x2c6;" horiz-adv-x="1081" d="M1170 1148h-271l-98 161l-157 -158h-277l356 341h236z" />
<glyph unicode="&#x2dc;" horiz-adv-x="616" d="M-229 418q8 5 33 24t40.5 29t39.5 23.5t47 20t45 6.5q27 0 52.5 -15.5t45.5 -37.5l42 -46q21 -22 47.5 -37.5t55.5 -15.5q32 0 75 21.5t62 36.5l64 49l-55 -260q-6 -4 -36 -25.5t-49 -33t-51.5 -23.5t-61.5 -12q-39 0 -75.5 24t-60.5 52t-54 52t-57 24t-55 -10 t-45.5 -20.5t-50.5 -33.5t-49 -33z" />
<glyph unicode="&#x2000;" horiz-adv-x="1048" />
<glyph unicode="&#x2001;" horiz-adv-x="2096" />
<glyph unicode="&#x2002;" horiz-adv-x="1048" />
<glyph unicode="&#x2003;" horiz-adv-x="2096" />
<glyph unicode="&#x2004;" horiz-adv-x="698" />
<glyph unicode="&#x2005;" horiz-adv-x="524" />
<glyph unicode="&#x2006;" horiz-adv-x="349" />
<glyph unicode="&#x2007;" horiz-adv-x="349" />
<glyph unicode="&#x2008;" horiz-adv-x="262" />
<glyph unicode="&#x2009;" horiz-adv-x="419" />
<glyph unicode="&#x200a;" horiz-adv-x="116" />
<glyph unicode="&#x2010;" horiz-adv-x="960" d="M258 754h772l-51 -240h-772z" />
<glyph unicode="&#x2011;" horiz-adv-x="960" d="M258 754h772l-51 -240h-772z" />
<glyph unicode="&#x2013;" horiz-adv-x="1001" d="M314 723h686l-49 -229h-686z" />
<glyph unicode="&#x2014;" horiz-adv-x="1290" d="M293 723h1010l-49 -229h-1010z" />
<glyph unicode="&#x2018;" horiz-adv-x="385" d="M279 1272q12 57 45.5 116t74 104t74 75.5t58.5 46.5l64 -43q-15 -19 -40.5 -59.5t-30.5 -62.5v-11q36 -9 61 -40t25 -81q0 -21 -5 -45q-13 -60 -71.5 -110.5t-121.5 -50.5q-68 0 -102 38t-34 91q0 16 3 32z" />
<glyph unicode="&#x2019;" horiz-adv-x="385" d="M671 1444q-12 -57 -45.5 -116t-74 -104t-74 -75.5t-58.5 -46.5l-64 43q15 19 40.5 59.5t30.5 62.5v11q-36 9 -61 40t-25 81q0 21 5 45q13 60 71.5 110.5t121.5 50.5q68 0 102 -38t34 -91q0 -16 -3 -32z" />
<glyph unicode="&#x201a;" horiz-adv-x="385" d="M391 154q-12 -57 -45.5 -116t-74 -104t-74 -75.5t-58.5 -46.5l-64 43q15 19 40.5 59.5t30.5 62.5v11q-36 9 -61 40t-25 81q0 21 5 45q13 60 71.5 110.5t121.5 50.5q68 0 102 -38t34 -91q0 -16 -3 -32z" />
<glyph unicode="&#x201c;" horiz-adv-x="770" d="M689 1272q12 57 45.5 116t74 104t74 75.5t58.5 46.5l64 -43q-15 -19 -40.5 -59.5t-30.5 -62.5v-11q36 -9 61 -40t25 -81q0 -21 -5 -45q-13 -60 -71.5 -110.5t-121.5 -50.5q-68 0 -102 38t-34 91q0 16 3 32zM287 1274q12 57 45.5 116t74 104t74 75.5t58.5 46.5l64 -43 q-15 -19 -40.5 -59.5t-30.5 -62.5v-11q36 -9 61 -40t25 -81q0 -21 -5 -45q-13 -60 -71.5 -110.5t-121.5 -50.5q-68 0 -102 38t-34 91q0 16 3 32z" />
<glyph unicode="&#x201d;" horiz-adv-x="770" d="M1042 1444q-12 -57 -45.5 -116t-74 -104t-74 -75.5t-58.5 -46.5l-64 43q15 19 40.5 59.5t30.5 62.5v11q-36 9 -61 40t-25 81q0 21 5 45q13 60 71.5 110.5t121.5 50.5q68 0 102 -38t34 -91q0 -16 -3 -32zM663 1446q-12 -57 -45.5 -116t-74 -104t-74 -75.5t-58.5 -46.5 l-64 43q15 19 40.5 59.5t30.5 62.5v11q-36 9 -61 40t-25 81q0 21 5 45q13 60 71.5 110.5t121.5 50.5q68 0 102 -38t34 -91q0 -16 -3 -32z" />
<glyph unicode="&#x201e;" horiz-adv-x="770" d="M773 152q-12 -57 -45.5 -116t-74 -104t-74 -75.5t-58.5 -46.5l-64 43q15 19 40.5 59.5t30.5 62.5v11q-36 9 -61 40t-25 81q0 21 5 45q13 60 71.5 110.5t121.5 50.5q68 0 102 -38t34 -91q0 -16 -3 -32zM394 154q-12 -57 -45.5 -116t-74 -104t-74 -75.5t-58.5 -46.5l-64 43 q15 19 40.5 59.5t30.5 62.5v11q-36 9 -61 40t-25 81q0 21 5 45q13 60 71.5 110.5t121.5 50.5q68 0 102 -38t34 -91q0 -16 -3 -32z" />
<glyph unicode="&#x2026;" horiz-adv-x="1353" d="M994 131q14 68 72.5 116t126.5 48q59 0 96 -36.5t37 -93.5q0 -17 -4 -34q-14 -68 -72.5 -116t-126.5 -48q-58 0 -95.5 37t-37.5 93q0 17 4 34zM543 131q14 68 72.5 116t126.5 48q59 0 96 -36.5t37 -93.5q0 -17 -4 -34q-14 -68 -72.5 -116t-126.5 -48q-58 0 -95.5 37 t-37.5 93q0 17 4 34zM92 131q14 68 72.5 116t126.5 48q59 0 96 -36.5t37 -93.5q0 -17 -4 -34q-14 -68 -72.5 -116t-126.5 -48q-58 0 -95.5 37t-37.5 93q0 17 4 34z" />
<glyph unicode="&#x202f;" horiz-adv-x="419" />
<glyph unicode="&#x2039;" horiz-adv-x="864" d="M468 24l-288 612l546 601h332l-547 -604l287 -609h-330z" />
<glyph unicode="&#x203a;" horiz-adv-x="864" d="M397 20h-338l552 612l-293 603h339l285 -599z" />
<glyph unicode="&#x205f;" horiz-adv-x="524" />
<glyph unicode="&#x20ac;" horiz-adv-x="1226" d="M423 760h-130l35 166h150q82 152 224.5 254t296.5 102q106 0 184.5 -46.5t138.5 -152.5l-184 -133q-62 103 -187 103q-55 0 -124.5 -38t-87.5 -89h269l-35 -166h-291q-8 -7 -15 -38l-10 -75h286l-36 -166h-262q7 -37 65 -62.5t101 -25.5q52 0 76.5 3t59 19t74.5 52 l146 -133q-87 -85 -174 -127.5t-231 -42.5q-167 0 -273 92.5t-111 224.5h-151l36 166h136l13 78q8 32 11 35z" />
<glyph unicode="&#x2122;" horiz-adv-x="2901" d="M1419 0l309 1456h360l130 -1032l576 1032h359l-309 -1456h-262l212 999l-530 -999h-270l-103 988l-210 -988h-262zM387 1456h1202l-50 -239h-457l-259 -1217h-268l259 1217h-477z" />
</font>
</defs>
</svg>
